<svg
	id="Capa_2"
	data-name="Capa 2"
	xmlns="http://www.w3.org/2000/svg"
	viewBox="0 0 74 78.78"
	fill="#FFFFFF"
>
	<g id="Capa_1-2" data-name="Capa 1">
		<g>
			<path
				className="cls-1"
				d="m33.43,73.93c-.02,1.73-.55,3.42-1.52,4.84h37.26s.05,0,.08,0c2.65-.02,4.77-2.19,4.75-4.84v-14.98h-40.58v14.98Z"
			/>
			<path
				className="cls-1"
				d="m45.58,44.56c.93-.74,1.47-1.83,1.5-2.99v-8.74s0-.05,0-.08c.02-3.72,3.06-6.72,6.78-6.7h4.79L29.32,0,0,26.05h4.67s.05,0,.08,0c.99.02,1.78.84,1.75,1.83v33.88l23.37-.32v-11.92c.1-2.73,2.32-4.91,5.07-4.97h10.64Z"
			/>
			<path
				className="cls-1"
				d="m72.53,48.11h-11.17c-.37.02-.72-.11-.99-.36-2.13-1.37-3.41-3.74-3.38-6.28v-8.55c-.04-1.72-1.42-3.1-3.14-3.14,0,0,.02,0,.02,0-1.77-.02-3.22,1.38-3.24,3.14v8.53c-.07,2.45-1.32,4.73-3.36,6.11-.34.23-.75.36-1.16.36h-11.2c-.79.06-1.42.68-1.48,1.47v6.01h40.58v-5.8c0-.82-.66-1.49-1.48-1.49Z"
			/>
		</g>
	</g>
</svg>
