<?xml version="1.0" encoding="UTF-8"?>
<svg id="Capa_2" data-name="Capa 2" xmlns="http://www.w3.org/2000/svg" viewBox="0 0 23.9 18.21">
  <defs>
    <style>
      .cls-1 {
        fill: #40c057;
      }
    </style>
  </defs>
  <g id="Capa_1-2" data-name="Capa 1">
    <path class="cls-1" d="m7.24,18.21c-.53-.05-.93-.29-1.29-.65-1.58-1.58-3.16-3.16-4.74-4.74-.36-.36-.71-.73-1.07-1.09-.19-.19-.19-.32.02-.51.54-.51,1.07-1.03,1.59-1.57.23-.24.37-.27.63-.02,1.51,1.52,3.04,3.02,4.55,4.54.25.25.37.23.61-.01C12.18,9.5,16.84,4.86,21.48.21c.26-.26.42-.29.68,0,.51.56,1.05,1.09,1.59,1.62.18.18.19.29,0,.47-2.3,2.3-4.6,4.61-6.9,6.91-2.69,2.69-5.38,5.38-8.07,8.07-.39.39-.77.79-1.35.88-.08.01-.15.03-.21.04Z"/>
  </g>
</svg>