<svg
	id="Capa_2"
	data-name="Capa 2"
	xmlns="http://www.w3.org/2000/svg"
	viewBox="0 0 91.05 60.44"
	fill="#022161"
>
	<g id="Capa_1-2" data-name="Capa 1">
		<g>
			<path
				className="cls-1"
				d="m50.17,19.63c1.09-4.02,3.74-6.41,7.1-6.41,2.12,0,4.24,1,6.13,2.89l2.28,2.28c.09-1.04.54-2.01,1.29-2.76l5.57-5.57c.03-.23.08-.45.13-.68h-25.43v14.47h1.8l1.14-4.21Z"
			/>
			<rect className="cls-1" x="15.61" y="9.38" width="27.8" height="14.47" />
			<polygon
				className="cls-1"
				points="31.62 27.68 31.62 42.15 44.07 42.15 47.99 27.68 31.62 27.68"
			/>
			<path
				className="cls-1"
				d="m43.12,45.97H15.61v14.47h27.8v-10.21c-.43-1.26-.54-2.7-.29-4.25Z"
			/>
			<rect className="cls-1" y="27.68" width="27.8" height="14.47" />
			<path
				className="cls-1"
				d="m76.33,27.68l-.67.67,5.95,5.95c2.38,2.38,3.36,5.22,2.67,7.8,0,.02-.01.03-.02.05h6.79v-14.47h-14.72Z"
			/>
			<path
				className="cls-1"
				d="m50.1,54.73c-1.04,0-2-.18-2.87-.52v6.23h27.8v-12.08l-22,5.96c-1.01.27-1.99.41-2.92.41Z"
			/>
			<path
				className="cls-1"
				d="m73.33,29.63l-6.15,6.15c-.37.37-.86.56-1.35.56s-.98-.19-1.35-.56c-.23-.23-.37-.52-.46-.82.17.05.35.1.53.1.49,0,.98-.19,1.35-.56l9.98-9.98c.75-.75.75-1.96,0-2.7l-3.05-3.05,4.96-4.97c.15.02.29.04.44.04.81,0,1.63-.31,2.25-.93l7.48-7.48c1.24-1.24,1.24-3.26,0-4.5-1.24-1.24-3.26-1.24-4.5,0l-7.48,7.48c-.74.73-1.02,1.74-.89,2.69l-6.32,6.32c-.75.75-.75,1.96,0,2.7l3.05,3.05-2.47,2.48-7.75-7.75c-3.62-3.62-7.63-2.54-8.97,2.39l-6.79,25.05c-1.34,4.93,1.58,7.85,6.52,6.52l25.05-6.79c4.93-1.34,6-5.35,2.39-8.97l-6.48-6.48Z"
			/>
		</g>
	</g>
</svg>
