<?xml version="1.0" encoding="UTF-8"?>
<svg id="Capa_2" data-name="Capa 2" xmlns="http://www.w3.org/2000/svg" viewBox="0 0 23.98 24">
  <defs>
    <style>
      .cls-1 {
        fill: #40c057;
      }
    </style>
  </defs>
  <g id="Capa_5" data-name="Capa 5">
    <path class="cls-1" d="m19.58,0H4.4C1.97,0,0,1.97,0,4.4v10.61c0,2.43,1.97,4.4,4.4,4.4h1.87v3.12c0,1.27,1.5,1.94,2.45,1.09l3.55-4.21h7.3c2.43,0,4.4-1.97,4.4-4.4V4.4c0-2.43-1.97-4.4-4.4-4.4ZM6.09,12.01c-1.28,0-2.33-1.04-2.33-2.33s1.04-2.32,2.33-2.32,2.33,1.04,2.33,2.32-1.04,2.33-2.33,2.33Zm5.98,0c-1.28,0-2.32-1.04-2.32-2.33s1.04-2.32,2.32-2.32,2.33,1.04,2.33,2.32-1.04,2.33-2.33,2.33Zm5.99,0c-1.28,0-2.33-1.04-2.33-2.33s1.04-2.32,2.33-2.32,2.33,1.04,2.33,2.32-1.04,2.33-2.33,2.33Z"/>
  </g>
</svg>