<?xml version="1.0" encoding="UTF-8"?>
<svg id="Capa_2" data-name="Capa 2" xmlns="http://www.w3.org/2000/svg" viewBox="0 0 27.88 27.88">
  <defs>
    <style>
      .cls-1 {
        fill: #022161;
        fill-rule: evenodd;
      }
    </style>
  </defs>
  <g id="Capa_5" data-name="Capa 5">
    <path class="cls-1" d="m27.88,13.58c0,7.5-6.13,13.58-13.69,13.58-2.4,0-4.66-.61-6.62-1.69l-7.58,2.41,2.47-7.29c-1.25-2.05-1.96-4.45-1.96-7.01C.51,6.08,6.64,0,14.2,0s13.69,6.08,13.69,13.58h0ZM14.2,2.16C7.85,2.16,2.69,7.29,2.69,13.58c0,2.5.81,4.81,2.19,6.7l-1.44,4.24,4.42-1.41c1.82,1.19,3.99,1.89,6.33,1.89,6.34,0,11.51-5.12,11.51-11.42S20.54,2.16,14.2,2.16h0Zm6.91,14.55c-.08-.14-.31-.22-.64-.39-.34-.17-1.99-.97-2.29-1.08-.31-.11-.53-.17-.75.17-.22.33-.87,1.08-1.06,1.31-.2.22-.39.25-.73.08-.34-.17-1.42-.52-2.7-1.65-1-.88-1.67-1.97-1.87-2.31-.19-.33-.02-.51.15-.68.15-.15.34-.39.5-.58.17-.2.22-.33.34-.56.11-.22.06-.42-.03-.58-.08-.17-.75-1.8-1.03-2.47-.28-.67-.56-.64-.75-.64s-.56.06-.56.06c0,0-.67.08-.98.42-.31.33-1.17,1.14-1.17,2.78s1.2,3.22,1.37,3.44c.17.22,2.32,3.69,5.73,5.03,3.41,1.33,3.41.89,4.03.83.61-.05,1.98-.8,2.26-1.58.28-.78.28-1.44.2-1.58h0Z"/>
  </g>
</svg>