<?xml version="1.0" encoding="UTF-8"?>
<svg id="Capa_2" data-name="Capa 2" xmlns="http://www.w3.org/2000/svg" viewBox="0 0 47.8 47.8">
  <defs>
    <style>
      .cls-1 {
        fill: #fff;
      }

      .cls-2 {
        fill: #022161;
      }
    </style>
  </defs>
  <g id="Capa_1-2" data-name="Capa 1">
    <g>
      <circle class="cls-2" cx="23.9" cy="23.9" r="23.9"/>
      <g>
        <path class="cls-1" d="m39.24,32.95c-.26.72-.78.97-1.53.97-9.25-.01-18.5,0-27.75,0-.75,0-1.22-.33-1.38-.95-.07-.27-.02-.45.24-.62,3.75-2.48,7.5-4.98,11.24-7.48.2-.14.32-.14.51.03.32.3.67.57,1.01.85,1.44,1.18,3.19,1.18,4.63,0,.35-.29.7-.56,1.03-.87.17-.15.28-.14.46-.02,2.51,1.68,5.02,3.35,7.53,5.01,1.34.89,2.68,1.78,4.01,2.67v.42Z"/>
        <path class="cls-1" d="m39.24,31.03c-.1.01-.16-.07-.23-.11-3.45-2.3-6.91-4.6-10.36-6.9-.06-.04-.11-.08-.2-.14.28-.23.54-.45.8-.67,3.23-2.69,6.46-5.38,9.68-8.06.1-.08.21-.16.31-.23v16.12Z"/>
        <path class="cls-1" d="m23.9,25.4c-.6,0-1.1-.23-1.55-.61-3.55-2.96-7.11-5.92-10.66-8.88-.63-.52-1.26-1.05-1.89-1.57-.1-.09-.26-.16-.19-.33.06-.16.21-.12.34-.12,9.3,0,18.6,0,27.9,0,.13,0,.28-.03.34.12.07.18-.09.25-.19.33-4.19,3.49-8.38,6.98-12.57,10.47-.44.37-.94.6-1.53.59Z"/>
        <path class="cls-1" d="m8.57,31.05V14.95c.14.03.22.13.31.2,3.42,2.85,6.84,5.7,10.27,8.55.13.11.25.17.02.32-3.49,2.31-6.96,4.63-10.44,6.95-.03.02-.07.04-.14.08Z"/>
      </g>
    </g>
  </g>
</svg>