<?xml version="1.0" encoding="UTF-8"?>
<svg id="Capa_2" data-name="Capa 2" xmlns="http://www.w3.org/2000/svg" viewBox="0 0 79.15 77.07">
  <defs>
    <style>
      .cls-1 {
        fill: #022161;
      }
    </style>
  </defs>
  <g id="Capa_1-2" data-name="Capa 1">
    <g>
      <path class="cls-1" d="m1.57.78C2.47.52,3.38.03,4.29.03,27.75,0,51.21,0,74.68,0c1.61,0,3.17.43,3.86,2.01.44,1,.58,2.21.58,3.32.04,14.01.03,28.01.02,42.02,0,4.05-.05,8.1-.03,12.15,0,1.95-2.01,3.8-3.61,3.78-.37,0-.74.02-1.11.02-18.3,0-36.6.02-54.9-.03-1.39,0-2.45.38-3.47,1.21-2.73,2.21-5.47,4.4-8.22,6.57-2.53,1.99-5.09,3.95-7.75,6.01,0-.45,0-.75,0-1.05,0-23.68.02-47.37-.04-71.05C0,3.37.18,2.03,1.37.92c.07-.05.13-.09.2-.14Zm54.91,39.48c.4-1.32.73-2.64.37-4.02-.04-.17,0-.36,0-.54-.17-.33-.35-.67-.52-1-.69-.86-1.28-1.84-2.1-2.56-1.3-1.14-2.96-1.4-4.65-1.32-.69.03-1.03-.21-.88-.89.31-1.39.5-2.84,1.06-4.13,1.08-2.52,3.03-4.31,5.38-5.61-.44-.73-.85-1.47-1.34-2.14-.15-.21-.62-.4-.83-.31-3.13,1.36-5.78,3.36-7.89,6.03-.44.55-.72,1.22-1.08,1.84-.04.04-.09.09-.13.13-1.39,1.66-1.79,3.73-2.17,5.73-.29,1.51-.27,3.16,0,4.68.51,2.98,1.82,5.57,4.5,7.28,2.06,1.32,4.29,1.44,6.45.64,1.52-.56,2.75-1.73,3.51-3.26.11-.18.21-.37.32-.55Zm-21.52-20.41c-.31-.61-.63-1.21-.91-1.83-.23-.5-.55-.47-.97-.28-3.37,1.49-6.11,3.79-8.28,6.73-2.24,3.04-3.19,6.49-3.01,10.28.14,3.03,1.26,5.56,3.41,7.73,3.06,3.09,8.34,2.6,10.8-.93,2.59-3.72.97-9.05-3.47-10.37-1.11-.33-2.3-.38-3.55-.57.06-.71.05-1.51.19-2.28.53-2.77,1.88-5.04,4.15-6.76.56-.43,1.09-.9,1.64-1.36.17-.05.33-.09.5-.14l-.02-.15c-.16-.03-.32-.06-.48-.09Z"/>
      <path class="cls-1" d="m1.57.78c-.07.05-.13.09-.2.14.07-.05.13-.09.2-.14Z"/>
      <path class="cls-1" d="m56.85,35.69c-.78-.02-.48-.6-.52-1,.17.33.35.67.52,1Z"/>
      <path class="cls-1" d="m34.95,20.22v-.38c.16.03.32.06.48.09l.02.15c-.17.05-.33.09-.5.14Z"/>
      <path class="cls-1" d="m43.99,25.6s-.09.09-.13.13c.04-.04.09-.09.13-.13Z"/>
    </g>
  </g>
</svg>