<?xml version="1.0" encoding="UTF-8"?>
<svg id="Capa_2" data-name="Capa 2" xmlns="http://www.w3.org/2000/svg" viewBox="0 0 22.34 18.32">
  <defs>
    <style>
      .cls-1 {
        fill: #40c057;
      }
    </style>
  </defs>
  <g id="Capa_5" data-name="Capa 5">
    <path id="_01.Home-2" data-name=" 01.Home-2" class="cls-1" d="m21.81,7.46L12.67.35c-.59-.46-1.42-.46-2.02,0L.32,8.39c-.62.48-.28,1.48.51,1.48h2.38v7.1c0,.75.65,1.36,1.46,1.36h-.01,4.19v-4.86c0-1.53,1.24-2.78,2.78-2.78h.09c1.53,0,2.78,1.24,2.78,2.78v4.86h4.18c.81,0,1.46-.61,1.46-1.36h0v-7.1h.75c1.37,0,1.99-1.59.94-2.41h0Z"/>
  </g>
</svg>