<?xml version="1.0" encoding="UTF-8"?>
<svg id="Capa_2" data-name="Capa 2" xmlns="http://www.w3.org/2000/svg" viewBox="0 0 35.24 35.24">
  <defs>
    <style>
      .cls-1 {
        fill: #fff;
      }

      .cls-2 {
        fill: #022161;
      }
    </style>
  </defs>
  <g id="Capa_1-2" data-name="Capa 1">
    <g>
      <circle class="cls-2" cx="17.62" cy="17.62" r="17.62"/>
      <g>
        <path class="cls-1" d="m21.97,12.33c-.53,0-.96.43-.96.96s.43.96.96.96.96-.43.96-.96-.43-.96-.96-.96Z"/>
        <path class="cls-1" d="m17.69,13.57c-2.23,0-4.05,1.82-4.05,4.05s1.82,4.05,4.05,4.05,4.05-1.82,4.05-4.05-1.82-4.05-4.05-4.05Zm0,6.65c-1.43,0-2.6-1.16-2.6-2.6s1.16-2.6,2.6-2.6,2.6,1.16,2.6,2.6-1.16,2.6-2.6,2.6Z"/>
        <path class="cls-1" d="m20.9,25.84h-6.57c-2.73,0-4.94-2.22-4.94-4.94v-6.57c0-2.73,2.22-4.94,4.94-4.94h6.57c2.73,0,4.94,2.22,4.94,4.94v6.57c0,2.73-2.22,4.94-4.94,4.94Zm-6.57-14.91c-1.87,0-3.39,1.52-3.39,3.39v6.57c0,1.87,1.52,3.39,3.39,3.39h6.57c1.87,0,3.39-1.52,3.39-3.39v-6.57c0-1.87-1.52-3.39-3.39-3.39h-6.57Z"/>
      </g>
    </g>
  </g>
</svg>