<?xml version="1.0" encoding="UTF-8"?>
<svg id="Capa_2" data-name="Capa 2" xmlns="http://www.w3.org/2000/svg" viewBox="0 0 462.02 133.75">
  <defs>
    <style>
      .cls-1 {
      fill: #fff;
      }
    </style>
  </defs>
  <g id="Capa_1-2" data-name="Capa 1">
    <g>
      <path class="cls-1"
        d="m22.64,80.21v9.72c4.13-6.3,10.03-10.65,18.29-10.65.72,0,1.45,0,2.17.1v16.02c-1.14-.1-1.96-.21-3.1-.21-9.51,0-16.23,5.99-17.36,17.88v8.37h6.1v12.3H0v-12.3h6.1v-29.04H0v-12.2h22.64Z" />
      <path class="cls-1"
        d="m72.15,78.35c17.05,0,25.32,10.65,25.01,26.36,0,1.55-.1,4.24-.21,5.79h-34.63c1.55,5.68,6.2,8.99,13.75,8.99,5.79,0,10.03-2.38,14.47-5.58l3.82,12.92c-5.79,4.44-12.51,6.93-21.91,6.93-16.54,0-27.8-9.72-27.8-27.8s11.68-27.6,27.49-27.6Zm11.16,23.46c0-5.37-3.41-10.13-10.65-10.13-5.79,0-9.61,3.82-10.75,10.13h21.4Z" />
      <path class="cls-1"
        d="m98.91,80.21h28.63v12.2h-4.75l8.58,26.87,8.48-26.87h-4.65v-12.2h28.53v12.2h-7.13l-14.68,41.34h-21.09l-14.78-41.34h-7.13v-12.2Z" />
      <path class="cls-1"
        d="m192.97,133.75c-15.4,0-27.49-9.72-27.49-27.8s12.09-27.6,27.49-27.6,27.49,9.61,27.49,27.6-12.09,27.8-27.49,27.8Zm0-41.24c-6.2,0-10.54,4.65-10.54,13.23s4.34,13.33,10.54,13.33,10.54-4.65,10.54-13.33-4.34-13.23-10.54-13.23Z" />
      <path class="cls-1"
        d="m222.22,92.41v-12.2h28.22v12.2h-5.06l5.06,21.29,8.58-28.32h12.61l8.58,28.22,4.75-21.19h-4.96v-12.2h28.11v12.2h-6.51l-11.68,41.34h-15.09l-9.51-31.32-9.51,31.32h-15.19l-11.89-41.34h-6.51Z" />
      <path class="cls-1"
        d="m332.71,78.35c6.31,0,11.16,2.07,14.78,6.3v-5.37h16.54v41.24h6.1v12.3h-22.64v-5.17c-3.72,4.03-8.68,6.1-14.88,6.1-13.13,0-22.74-9.72-22.74-27.8s9.61-27.6,22.84-27.6Zm-5.89,27.91c0,8.58,4.65,13.33,10.96,13.33,4.44,0,8.17-2.58,9.72-7.03v-12.4c-1.55-4.55-5.06-7.13-9.72-7.13-6.3,0-10.96,4.65-10.96,13.23Z" />
      <path class="cls-1" d="m373.64,60.57h22.84v60.88h6.3v12.3h-29.15v-12.3h6.3v-48.58h-6.3v-12.3Z" />
      <path class="cls-1" d="m406.3,60.57h22.84v60.88h6.3v12.3h-29.15v-12.3h6.3v-48.58h-6.3v-12.3Z" />
      <path class="cls-1"
        d="m387.83,0l-24.65,17.95V6.02h-33.72v36.49l-12.46,9.07,9.63,13.23,61.2-44.56,57.83,42.11v71.4h16.36V54.03L387.83,0Zm-38.04,27.7l-6.95,5.06v-13.35h6.95v8.29Z" />
    </g>
  </g>
</svg>