<?xml version="1.0" encoding="UTF-8"?>
<svg id="Capa_2" data-name="Capa 2" xmlns="http://www.w3.org/2000/svg" viewBox="0 0 25.09 20.31">
  <defs>
    <style>
      .cls-1 {
        fill: #40c057;
        fill-rule: evenodd;
      }
    </style>
  </defs>
  <g id="Capa_5" data-name="Capa 5">
    <g>
      <path class="cls-1" d="m19.19,10.41c-1.17,0-2.27.24-3.19.64,3.24.93,5.53,3.17,5.59,5.79,1.68-.22,3.5-.85,3.5-2.59,0-2.08-2.7-3.84-5.89-3.84Z"/>
      <path class="cls-1" d="m19.16,8.99h.02c2.51,0,4.49-2.34,3.86-4.94-.34-1.42-1.51-2.55-2.93-2.89-.78-.19-1.5-.13-2.16.08.71,1.05,1.12,2.31,1.12,3.68.01,1.39-.42,2.72-1.23,3.83.42.15.86.24,1.32.24Z"/>
      <path class="cls-1" d="m9.08,11.04c-.92-.39-2.02-.63-3.18-.63-3.19,0-5.89,1.76-5.89,3.84,0,1.74,1.81,2.36,3.49,2.59.05-2.62,2.34-4.86,5.59-5.8Z"/>
      <path class="cls-1" d="m5.89,8.99h.03c.46,0,.9-.08,1.32-.24-.78-1.07-1.24-2.39-1.24-3.83s.41-2.63,1.12-3.68c-.66-.21-1.38-.27-2.15-.09-1.42.34-2.58,1.47-2.92,2.89-.63,2.59,1.34,4.94,3.85,4.94Z"/>
      <path class="cls-1" d="m12.54,12.09c-4.07,0-7.51,2.21-7.51,4.84,0,3.39,5.65,3.39,7.51,3.39,3.22,0,7.51-.35,7.51-3.37,0-2.63-3.44-4.86-7.51-4.86Z"/>
      <path class="cls-1" d="m12.54,9.99h.03c.69,0,1.39-.11,2.01-.41,1.88-.9,2.96-2.66,2.95-4.58C17.54,1.89,14.69-.56,11.47.11c-1.89.39-3.41,1.91-3.81,3.8-.69,3.23,1.77,6.08,4.88,6.08Z"/>
    </g>
  </g>
</svg>