<?xml version="1.0" encoding="UTF-8"?>
<svg id="Capa_2" data-name="Capa 2" xmlns="http://www.w3.org/2000/svg" viewBox="0 0 21.36 21.34">
  <defs>
    <style>
      .cls-1 {
        fill: #40c057;
      }
    </style>
  </defs>
  <g id="Capa_5" data-name="Capa 5">
    <g>
      <path class="cls-1" d="m14.73,21.34c-.36-.06-.73-.11-1.08-.18-.96-.2-1.86-.57-2.73-1-3.46-1.71-6.22-4.2-8.38-7.38-.94-1.38-1.69-2.86-2.18-4.45C.06,7.39-.11,6.44.08,5.47c.09-.46.29-.87.62-1.21.56-.58,1.13-1.15,1.71-1.71.73-.7,1.55-.7,2.27,0,.85.82,1.68,1.67,2.51,2.51.37.37.61.81.53,1.36-.06.41-.3.73-.58,1.01-.47.47-.95.94-1.42,1.41-.24.24-.25.31-.11.62.54,1.2,1.36,2.21,2.24,3.16.88.95,1.85,1.8,2.95,2.5.37.24.78.43,1.17.63.18.09.32.02.44-.11.49-.49.97-.98,1.46-1.46.15-.15.3-.29.48-.39.57-.33,1.18-.28,1.69.13.1.08.2.17.3.26.79.78,1.57,1.57,2.36,2.36.2.2.38.41.49.67.22.54.14,1.05-.24,1.48-.6.69-1.27,1.33-1.93,1.96-.36.35-.83.53-1.33.61-.06,0-.12.03-.18.04h-.79Z"/>
      <path class="cls-1" d="m21.36,9.99c-.51.09-1.03.18-1.54.28-.12.02-.12-.06-.13-.13-.14-.7-.33-1.39-.6-2.05-.68-1.64-1.71-3.03-3.08-4.16-1.26-1.04-2.7-1.74-4.29-2.12-.25-.06-.5-.11-.76-.14-.13-.02-.17-.06-.15-.19.07-.45.14-.91.2-1.36.01-.12.05-.13.16-.11,3.33.54,6,2.17,8.01,4.87,1.09,1.46,1.79,3.11,2.14,4.9,0,.05,0,.1.05.13v.08Z"/>
      <path class="cls-1" d="m10.59,5.77c.06-.47.13-.9.18-1.33.02-.15.07-.19.22-.16,1.55.27,2.89.96,4,2.08,1.04,1.05,1.71,2.31,2,3.77.02.12.02.18-.12.2-.45.07-.89.14-1.33.22-.13.02-.17-.01-.19-.13-.48-2.12-1.75-3.54-3.79-4.28-.27-.1-.55-.16-.83-.2-.11-.02-.2-.05-.14-.16Z"/>
    </g>
  </g>
</svg>