<?xml version="1.0" encoding="UTF-8"?>
<svg id="Capa_2" data-name="Capa 2" xmlns="http://www.w3.org/2000/svg" viewBox="0 0 23.51 22.23">
  <defs>
    <style>
      .cls-1 {
        fill: #40c057;
        fill-rule: evenodd;
      }
    </style>
  </defs>
  <g id="Capa_5" data-name="Capa 5">
    <path class="cls-1" d="m23.51,21.68V3.97c0-.3-.25-.55-.55-.55H6.59v9.86c0,.19-.08.34-.23.45-.15.11-.32.13-.5.07-.57-.2-1.2-.29-1.85-.22-1.98.2-3.57,1.82-3.79,3.79-.3,2.62,1.71,4.85,4.24,4.85h18.51c.3,0,.55-.25.55-.55ZM0,13.42V3.54C0,1.66,1.64.05,3.75,0c.36,0,.72.03,1.05.11.16.04.28.16.28.31v11.11s-.02.07-.05.09-.07.03-.11.02c-.35-.08-.71-.11-1.08-.11-1.62,0-3.04.76-3.85,1.89Zm15.66-4.65c.37.09.72.24,1.04.43l1.3-.94,1.04,1.04-.94,1.3c.19.32.34.67.43,1.04l1.59.25v1.47l-1.59.25c-.09.37-.24.72-.43,1.04l.94,1.3-1.04,1.04-1.3-.94c-.32.19-.67.34-1.04.43l-.25,1.59h-1.47l-.25-1.59c-.37-.09-.72-.24-1.04-.43l-1.3.94-1.04-1.04.94-1.3c-.19-.32-.34-.67-.43-1.04l-1.59-.25v-1.47l1.59-.25c.09-.37.24-.72.43-1.04l-.94-1.3,1.04-1.04,1.3.94c.32-.19.67-.34,1.04-.43l.25-1.59h1.47l.25,1.59Zm-.93,1.86c1.21,0,2.19.98,2.19,2.19s-.98,2.19-2.19,2.19-2.19-.98-2.19-2.19.98-2.19,2.19-2.19Z"/>
  </g>
</svg>