<?xml version="1.0" encoding="UTF-8"?>
<svg id="Capa_2" data-name="Capa 2" xmlns="http://www.w3.org/2000/svg" viewBox="0 0 22.74 22.92">
  <defs>
    <style>
      .cls-1 {
        fill: #40c057;
      }
    </style>
  </defs>
  <g id="Capa_5" data-name="Capa 5">
    <g>
      <path class="cls-1" d="m15.24,4.67c.99.99,1.92,1.92,2.87,2.87.04-.04.1-.08.15-.13,1.13-1.13,2.25-2.25,3.38-3.38.35-.35.74-.26.87.23.55,2.17.18,4.16-1.28,5.88-1.74,2.05-4.39,2.69-6.87,1.7-.22-.09-.3,0-.42.13-1.83,2.06-3.67,4.12-5.5,6.18-1.13,1.26-2.24,2.54-3.38,3.79-.77.85-1.75,1.19-2.87.87-1.13-.32-1.9-1.06-2.12-2.24-.21-1.09.15-2.02.98-2.77,1.48-1.33,2.97-2.65,4.46-3.97,1.81-1.62,3.63-3.23,5.45-4.84.17-.15.2-.26.11-.48-1.38-3.5.61-7.44,4.21-8.33,1.08-.27,2.15-.22,3.21.1.59.18.67.52.24.95-1.08,1.08-2.15,2.16-3.23,3.23-.08.08-.17.14-.26.21Z"/>
      <path class="cls-1" d="m12.61,16.52c.69-.79,1.37-1.57,2.05-2.34.05-.05.16-.07.24-.07.82.05,1.64.11,2.46.18.1,0,.21.06.28.13,1.28,1.15,2.57,2.29,3.84,3.45.92.84,1.2,2.1.74,3.19-.49,1.17-1.58,1.89-2.81,1.83-.79-.04-1.47-.35-2-.94-1.59-1.77-3.16-3.56-4.74-5.34-.02-.02-.03-.05-.08-.11Z"/>
      <path class="cls-1" d="m7.39,9.39c-.85-.85-1.71-1.71-2.56-2.56-.32-.32-.73-.91-1.14-1.12-.41-.21-.86.05-1.28-.08-.69-.21-1.24-1.73-1.59-2.31C.56,2.9,0,2.34.22,1.88c.19-.42.92-.92,1.26-1.26.98.59,1.96,1.18,2.94,1.76.35.21.56.26.64.64.08.38-.06.72.11,1.11.34.8,1.24,1.38,1.84,1.98.41.41,2.14,1.68,1.53,2.24-.37.34-.74.69-1.13,1.05Z"/>
    </g>
  </g>
</svg>