<svg
	id="Capa_2"
	data-name="Capa 2"
	xmlns="http://www.w3.org/2000/svg"
	viewBox="0 0 73.03 74.73"
	fill="#022161"
>
	<g id="Capa_1-2" data-name="Capa 1">
		<path
			className="cls-1"
			d="m30.52,51.41c.66-2.34,3.87-11.76,3.87-11.76l-5.17-4.13,13.72-11.85-4.5,11.46,5.47,3.96-13.39,12.32Zm-17.94,7.56l-6.11,5.22v9.74C2.62,71.78.02,67.66.02,62.95c0-5.26,3.22-9.76,7.8-11.64v-27.51C3.23,21.91,0,17.4,0,12.13,0,7.41,2.61,3.29,6.46,1.13v9.76l6.11,5.22,6.11-5.22V1.13c3.86,2.16,6.46,6.28,6.46,11.01,0,5.27-3.23,9.78-7.82,11.66v27.5c4.58,1.88,7.8,6.39,7.8,11.64,0,4.72-2.6,8.83-6.44,10.98v-9.74l-6.11-5.22ZM30.98,0h8.11c1.38,0,2.43,1.14,2.44,2.52.05,7.31,9,10.97,14.25,5.8.98-.96,2.52-1.02,3.49-.05l5.37,5.32c.99.98.93,2.54-.05,3.52-5.17,5.2-1.46,14.04,5.92,14.06,1.38,0,2.52,1.06,2.52,2.44v7.5c0,1.38-1.14,2.44-2.52,2.44-7.38.03-11.09,8.86-5.92,14.06.98.99,1.04,2.55.05,3.53l-4.82,4.77c-1.54,1.52-3.07,1.46-4.05.5-5.24-5.16-14.19-1.5-14.25,5.8,0,1.38-1.06,2.52-2.43,2.52h-7.37c-.61-.13-.68-.21-.82-.34v-16.67c3.04.64,6.31.63,9.67-.19,7.45-1.82,13.38-7.75,15.14-15.21,3.2-13.59-7.23-25.75-20.43-25.75-1.5,0-2.96.16-4.37.45V.07s.04-.04.07-.07Z"
		/>
	</g>
</svg>
