<?xml version="1.0" encoding="UTF-8"?>
<svg id="Capa_2" data-name="Capa 2" xmlns="http://www.w3.org/2000/svg" viewBox="0 0 47.8 47.8">
  <defs>
    <style>
      .cls-1 {
        fill: #fff;
      }

      .cls-2 {
        fill: #022161;
      }
    </style>
  </defs>
  <g id="Capa_1-2" data-name="Capa 1">
    <g>
      <circle class="cls-2" cx="23.9" cy="23.9" r="23.9"/>
      <g>
        <path class="cls-1" d="m29.18,37.81c-.47-.08-.95-.14-1.41-.24-1.25-.26-2.42-.75-3.56-1.31-4.51-2.23-8.12-5.48-10.94-9.63-1.22-1.8-2.2-3.73-2.85-5.81-.38-1.21-.6-2.45-.35-3.72.12-.6.38-1.14.81-1.57.74-.75,1.48-1.5,2.24-2.23.95-.91,2.02-.91,2.96,0,1.1,1.08,2.19,2.17,3.27,3.27.48.49.79,1.06.69,1.78-.08.54-.39.95-.76,1.32-.61.62-1.23,1.23-1.85,1.84-.32.32-.33.4-.14.81.7,1.57,1.78,2.88,2.93,4.13,1.15,1.24,2.42,2.35,3.85,3.27.49.31,1.01.56,1.53.83.24.12.41.03.58-.14.63-.64,1.27-1.27,1.9-1.91.19-.19.39-.37.63-.51.74-.43,1.54-.37,2.2.17.13.11.26.22.38.34,1.03,1.02,2.05,2.05,3.08,3.07.26.26.49.53.63.88.29.7.18,1.38-.31,1.93-.79.9-1.65,1.73-2.51,2.56-.47.46-1.08.69-1.73.79-.08.01-.16.04-.23.06h-1.03Z"/>
        <path class="cls-1" d="m37.83,23.02c-.67.12-1.34.24-2,.36-.16.03-.16-.08-.17-.17-.18-.92-.43-1.81-.79-2.68-.88-2.15-2.23-3.95-4.02-5.43-1.65-1.36-3.52-2.28-5.6-2.76-.33-.08-.66-.14-.99-.19-.16-.02-.22-.08-.19-.24.09-.59.18-1.18.25-1.78.02-.15.07-.16.21-.14,4.34.7,7.82,2.84,10.45,6.35,1.43,1.91,2.33,4.06,2.79,6.39.01.06,0,.13.06.17v.11Z"/>
        <path class="cls-1" d="m23.78,17.51c.08-.61.17-1.17.24-1.74.02-.2.09-.25.29-.21,2.02.35,3.77,1.25,5.22,2.71,1.36,1.37,2.23,3.01,2.61,4.91.03.16.02.23-.15.26-.58.09-1.16.19-1.74.29-.17.03-.22-.02-.25-.17-.62-2.77-2.29-4.62-4.95-5.58-.35-.13-.71-.21-1.08-.26-.15-.02-.26-.06-.19-.2Z"/>
      </g>
    </g>
  </g>
</svg>