<?xml version="1.0" encoding="utf-8"?>
<!-- Svg Vector Icons : http://www.onlinewebfonts.com/icon -->
<!DOCTYPE svg PUBLIC "-//W3C//DTD SVG 1.1//EN" "http://www.w3.org/Graphics/SVG/1.1/DTD/svg11.dtd">
<svg version="1.1" xmlns="http://www.w3.org/2000/svg" xmlns:xlink="http://www.w3.org/1999/xlink"
    x="0px" y="0px" viewBox="0 0 256 256" enable-background="new 0 0 256 256" xml:space="preserve">
<g><g><path fill="#FFFFFF" d="M201.7,241c-0.9,3.5-4.5,5.7-8.1,4.8s-5.8-4.5-4.9-8l8.2-32.6V137c0-2.7-1.4-4.5-3.3-5.3c-0.8-0.3-1.7-0.4-2.7-0.4c-0.9,0-1.9,0.1-2.6,0.4c-1.7,0.8-3.1,2.4-3.2,5.1l0,0v0.2v7.5c0,3.6-3,6.6-6.7,6.6c-3.7,0-6.7-3-6.7-6.6V137v-0.2v-0.2v-9.7c0-2.7-1.4-4.5-3.2-5.3h0l0,0c-0.8-0.3-1.7-0.4-2.7-0.4s-1.9,0.1-2.6,0.4c-1.8,0.8-3.2,2.4-3.3,5.1v0.2v17.6c0,3.6-3,6.6-6.7,6.6c-3.7,0-6.7-3-6.7-6.6v-17.6v-0.4v-0.9v-0.1v-1.2c0-2.7-1.4-4.5-3.2-5.3c-0.8-0.3-1.8-0.4-2.7-0.4c-0.9,0-1.9,0.1-2.7,0.4c-1.7,0.8-3.1,2.4-3.2,5.1v0.1v0.1v20.3c0,3.6-3,6.6-6.7,6.6c-3.6,0-6.7-3-6.7-6.6v-20.3v-0.1v-0.3V79.6c0-2.7-1.4-4.5-3.2-5.3c-0.8-0.2-1.7-0.4-2.7-0.4c-0.9,0-1.9,0.2-2.6,0.4c-1.8,0.8-3.2,2.5-3.2,5.3c0,35.7,0,71.5,0,107.2c0,3.6-3,6.6-6.7,6.6c-3.8,0-6.7-3-6.7-6.6v-29.2v-0.1v-0.1c-0.1-2.6-1.5-4.3-3.2-5.1c-0.8-0.3-1.8-0.4-2.7-0.4s-1.9,0.1-2.6,0.4c-1.8,0.8-3.3,2.5-3.3,5.3v33.6c0,13.1,0.6,13.7,7.4,22.5l1.9,2.5l14.7,19c2.3,3,1.7,7.2-1.2,9.4c-2.9,2.3-7.2,1.8-9.4-1.2l-14.7-19l-1.9-2.5c-9.5-12.2-10.1-13-10.1-30.6v-33.6c0-9.2,5.1-15.1,11.6-17.6c2.5-1,5.1-1.5,7.7-1.5c2,0,4,0.3,5.9,0.9V79.6c0-9.2,5.1-15,11.7-17.6c2.4-1,5.1-1.5,7.6-1.5s5.2,0.6,7.7,1.5c6.6,2.6,11.6,8.5,11.6,17.6V106c1.9-0.6,4-0.9,5.9-0.9c2.6,0,5.2,0.6,7.7,1.5c2.4,1,4.7,2.4,6.6,4.3c1.1-0.6,2.1-1.2,3.3-1.7c2.5-1,5.1-1.5,7.7-1.5c2.5,0,5.2,0.6,7.6,1.5l0,0c4.5,1.8,8.3,5.2,10.2,9.9c2.4-0.9,4.8-1.3,7.3-1.3c2.6,0,5.2,0.6,7.7,1.5c6.5,2.5,11.6,8.5,11.6,17.6v68.9l0,0c0,0.6,0,1.1-0.2,1.5L201.7,241L201.7,241z M71.8,115.2c2.3,2.7,1.9,7.1-1,9.4c-2.9,2.3-7.1,1.9-9.4-1c-5-6.2-8.9-13.1-11.6-20.6c-2.5-7.4-4-15.2-4-23.4c0-38.1,31.5-69.6,69.6-69.6c38.4,0,69.6,31.3,69.6,69.6c0,2.1-0.1,4.3-0.3,6.6c-0.2,2.3-0.5,4.5-0.9,6.6c-0.7,3.6-4.2,5.9-7.8,5.3c-3.6-0.7-6-4.2-5.3-7.8c0.3-1.8,0.6-3.5,0.7-5.3c0.2-1.5,0.3-3.4,0.3-5.4c0-31-25.4-56.2-56.3-56.2c-30.9,0-56.3,25.3-56.3,56.2c0,6.6,1.2,13,3.3,18.8C64.6,104.6,67.8,110.3,71.8,115.2L71.8,115.2z M84.8,89.5c1.2,3.5-0.8,7.3-4.4,8.4c-3.5,1.1-7.3-0.8-8.4-4.3c-0.7-2.2-1.2-4.5-1.6-6.9c-0.4-2.3-0.6-4.7-0.6-7.1c0-25,20.5-45.6,45.6-45.6s45.6,20.6,45.6,45.6c0,2.3-0.2,4.7-0.6,7.1l-0.1,0.3c-0.3,2.3-0.9,4.5-1.5,6.6c-1.1,3.5-4.8,5.4-8.4,4.3c-3.5-1.1-5.5-4.8-4.4-8.4c0.5-1.4,0.9-3.1,1.2-4.5v-0.4c0.2-1.4,0.3-3.1,0.3-5c0-17.6-14.5-32.2-32.2-32.2c-17.6,0-32.2,14.5-32.2,32.2c0,1.9,0.1,3.5,0.3,5v0.1C83.9,86.4,84.3,88,84.8,89.5L84.8,89.5z"/></g></g>
</svg>