<?xml version="1.0" encoding="UTF-8"?>
<svg id="Capa_2" data-name="Capa 2" xmlns="http://www.w3.org/2000/svg" viewBox="0 0 47.8 47.8">
  <defs>
    <style>
      .cls-1 {
        fill: #fff;
      }

      .cls-2 {
        fill: #022161;
      }
    </style>
  </defs>
  <g id="Capa_1-2" data-name="Capa 1">
    <g>
      <circle class="cls-2" cx="23.9" cy="23.9" r="23.9"/>
      <path class="cls-1" d="m24.61,9.88c.24.04.48.08.73.11,2.34.33,4.34,1.34,6.01,3,1.41,1.4,2.33,3.09,2.79,5.03.46,1.94.31,3.85-.29,5.74-.59,1.87-1.48,3.6-2.51,5.27-1.9,3.08-4.17,5.87-6.67,8.48-.54.56-1,.56-1.54,0-2.85-2.98-5.41-6.17-7.42-9.78-1.01-1.81-1.83-3.69-2.18-5.75-.26-1.5-.15-2.98.27-4.44.63-2.21,1.86-4.02,3.67-5.44,1.64-1.28,3.5-2,5.57-2.18.05,0,.1-.03.16-.04.47,0,.95,0,1.42,0Zm4.54,10.53c.01-2.89-2.36-5.26-5.25-5.27-2.88,0-5.24,2.34-5.26,5.23-.02,2.89,2.34,5.27,5.24,5.28,2.89.02,5.26-2.35,5.28-5.24Z"/>
    </g>
  </g>
</svg>