<?xml version="1.0" encoding="UTF-8"?>
<svg id="Capa_2" data-name="Capa 2" xmlns="http://www.w3.org/2000/svg" viewBox="0 0 568.37 604.16">
  <defs>
    <style>
      .cls-1 {
        fill: #fff;
      }

      .cls-2 {
        fill: #c6c6c5;
        opacity: .1;
      }
    </style>
  </defs>
  <g id="Capa_1-2" data-name="Capa 1">
    <g>
      <path class="cls-2" d="m437.78,24.96c0,13.79-11.18,24.96-24.96,24.96s-24.96-11.18-24.96-24.96S399.03,0,412.81,0s24.96,11.17,24.96,24.96Z"/>
      <path class="cls-2" d="m468.21,59.88c0,6.89-5.59,12.48-12.48,12.48s-12.48-5.59-12.48-12.48,5.59-12.48,12.48-12.48,12.48,5.59,12.48,12.48Z"/>
      <path class="cls-2" d="m350.86,88.42c0,5.7-4.62,10.32-10.32,10.32s-10.32-4.62-10.32-10.32,4.62-10.32,10.32-10.32,10.32,4.62,10.32,10.32Z"/>
      <path class="cls-2" d="m260.6,199.91c0,7.56-6.13,13.69-13.68,13.69s-13.69-6.13-13.69-13.69,6.13-13.68,13.69-13.68,13.68,6.12,13.68,13.68Z"/>
      <path class="cls-2" d="m398.75,265.19c0,7.56-6.13,13.69-13.68,13.69s-13.69-6.13-13.69-13.69,6.13-13.68,13.69-13.68,13.68,6.12,13.68,13.68Z"/>
      <path class="cls-2" d="m479.37,290.61c0,3.78-3.06,6.84-6.84,6.84s-6.84-3.06-6.84-6.84,3.06-6.84,6.84-6.84,6.84,3.06,6.84,6.84Z"/>
      <path class="cls-2" d="m558.46,319.17c0,3.78-3.06,6.84-6.84,6.84s-6.84-3.06-6.84-6.84,3.06-6.84,6.84-6.84,6.84,3.06,6.84,6.84Z"/>
      <path class="cls-2" d="m72.23,416.23c0,7.56-6.13,13.69-13.68,13.69s-13.69-6.13-13.69-13.69,6.13-13.68,13.69-13.68,13.68,6.12,13.68,13.68Z"/>
      <path class="cls-2" d="m156.52,409.47c0,7.56-6.13,13.69-13.68,13.69s-13.69-6.13-13.69-13.69,6.13-13.68,13.69-13.68,13.68,6.12,13.68,13.68Z"/>
      <path class="cls-2" d="m436.48,111.72c0,5.84-4.73,10.57-10.57,10.57s-10.57-4.73-10.57-10.57,4.73-10.57,10.57-10.57,10.57,4.73,10.57,10.57Z"/>
      <path class="cls-2" d="m301.16,360.16c0,5.84-4.73,10.57-10.57,10.57s-10.57-4.73-10.57-10.57,4.73-10.57,10.57-10.57,10.57,4.73,10.57,10.57Z"/>
      <path class="cls-2" d="m148.41,255.32c0,5.84-4.73,10.57-10.57,10.57s-10.57-4.73-10.57-10.57,4.73-10.57,10.57-10.57,10.57,4.73,10.57,10.57Z"/>
      <path class="cls-2" d="m53.06,277.67c0,5.84-4.73,10.57-10.57,10.57s-10.57-4.73-10.57-10.57,4.73-10.57,10.57-10.57,10.57,4.73,10.57,10.57Z"/>
      <path class="cls-2" d="m50.62,249.66c0,2.92-2.37,5.28-5.28,5.28s-5.29-2.37-5.29-5.28,2.37-5.28,5.29-5.28,5.28,2.37,5.28,5.28Z"/>
      <path class="cls-2" d="m71.77,267.47c0,2.92-2.37,5.28-5.28,5.28s-5.29-2.37-5.29-5.28,2.37-5.28,5.29-5.28,5.28,2.37,5.28,5.28Z"/>
      <path class="cls-2" d="m479.99,419.71c0,5.84-4.73,10.57-10.57,10.57s-10.57-4.73-10.57-10.57,4.73-10.57,10.57-10.57,10.57,4.73,10.57,10.57Z"/>
      <path class="cls-2" d="m477.55,391.7c0,2.92-2.37,5.28-5.28,5.28s-5.29-2.37-5.29-5.28,2.37-5.28,5.29-5.28,5.28,2.37,5.28,5.28Z"/>
      <path class="cls-2" d="m498.7,409.5c0,2.92-2.37,5.28-5.28,5.28s-5.29-2.37-5.29-5.28,2.37-5.29,5.29-5.29,5.28,2.37,5.28,5.29Z"/>
      <path class="cls-2" d="m285.91,215.3c0,3.78-3.06,6.84-6.84,6.84s-6.84-3.06-6.84-6.84,3.06-6.84,6.84-6.84,6.84,3.06,6.84,6.84Z"/>
      <path class="cls-2" d="m134.11,383.76c0,3.78-3.06,6.84-6.84,6.84s-6.84-3.06-6.84-6.84,3.06-6.84,6.84-6.84,6.84,3.06,6.84,6.84Z"/>
      <path class="cls-2" d="m113.84,158.77c0,3.78-3.06,6.84-6.84,6.84s-6.84-3.06-6.84-6.84,3.06-6.84,6.84-6.84,6.84,3.06,6.84,6.84Z"/>
      <path class="cls-2" d="m462.57,151.93c0,3.78-3.06,6.84-6.84,6.84s-6.84-3.06-6.84-6.84,3.06-6.84,6.84-6.84,6.84,3.06,6.84,6.84Z"/>
      <path class="cls-2" d="m270.61,462.03c0,3.78-3.06,6.84-6.84,6.84s-6.84-3.06-6.84-6.84,3.06-6.84,6.84-6.84,6.84,3.06,6.84,6.84Z"/>
      <path class="cls-2" d="m232.14,342.32c0,3.78-3.06,6.84-6.84,6.84s-6.84-3.06-6.84-6.84,3.06-6.84,6.84-6.84,6.84,3.06,6.84,6.84Z"/>
      <path class="cls-2" d="m291.25,190.84c0,3.78-3.06,6.84-6.84,6.84s-6.84-3.06-6.84-6.84,3.06-6.84,6.84-6.84,6.84,3.06,6.84,6.84Z"/>
      <path class="cls-2" d="m382.99,410.03c6.63-3.63,14.95-1.19,18.57,5.44,3.63,6.63,1.2,14.95-5.43,18.58-6.63,3.63-14.94,1.19-18.57-5.44-3.63-6.63-1.2-14.94,5.43-18.57Z"/>
      <path class="cls-2" d="m384.34,380.43c3.31-1.81,7.47-.6,9.29,2.72,1.81,3.31.6,7.47-2.72,9.29-3.32,1.81-7.47.6-9.29-2.72-1.82-3.31-.6-7.47,2.72-9.29Z"/>
      <path class="cls-2" d="m360.32,387.49c3.31-1.81,7.47-.6,9.29,2.72,1.81,3.32.6,7.47-2.72,9.29-3.32,1.81-7.47.6-9.29-2.72-1.81-3.31-.6-7.47,2.72-9.29Z"/>
      <path class="cls-2" d="m245.16,61.21c0,3.78-3.06,6.84-6.84,6.84s-6.84-3.06-6.84-6.84,3.06-6.84,6.84-6.84,6.84,3.06,6.84,6.84Z"/>
      <path class="cls-2" d="m341.75,56.58c0,2.85-2.31,5.15-5.15,5.15s-5.16-2.31-5.16-5.15,2.31-5.15,5.16-5.15,5.15,2.31,5.15,5.15Z"/>
      <path class="cls-2" d="m366.4,108.73c0,2.85-2.31,5.15-5.15,5.15s-5.16-2.31-5.16-5.15,2.31-5.15,5.16-5.15,5.15,2.31,5.15,5.15Z"/>
      <path class="cls-2" d="m376.26,547.98c0,5.7-4.62,10.32-10.32,10.32s-10.32-4.62-10.32-10.32,4.62-10.32,10.32-10.32,10.32,4.62,10.32,10.32Z"/>
      <path class="cls-2" d="m394.71,511.03c0,2.85-2.31,5.15-5.15,5.15s-5.16-2.31-5.16-5.15,2.31-5.15,5.16-5.15,5.15,2.31,5.15,5.15Z"/>
      <path class="cls-2" d="m404.68,563.41c0,2.85-2.31,5.15-5.15,5.15s-5.16-2.31-5.16-5.15,2.31-5.15,5.16-5.15,5.15,2.31,5.15,5.15Z"/>
      <path class="cls-2" d="m501.19,30.62c0,6.89-5.59,12.48-12.48,12.48s-12.48-5.59-12.48-12.48,5.59-12.48,12.48-12.48,12.48,5.59,12.48,12.48Z"/>
      <path class="cls-2" d="m80.7,552.72c-4.73,12.95-19.07,19.61-32.01,14.88-12.95-4.73-19.61-19.07-14.88-32.01,4.73-12.95,19.07-19.6,32.01-14.87,12.95,4.73,19.61,19.07,14.88,32.01Z"/>
      <path class="cls-2" d="m97.3,595.96c-2.37,6.48-9.53,9.81-16.01,7.44-6.47-2.37-9.8-9.53-7.44-16.01,2.37-6.47,9.53-9.8,16.01-7.44,6.47,2.37,9.8,9.53,7.44,16Z"/>
      <path class="cls-2" d="m24.21,569.86c-2.37,6.47-9.53,9.8-16.01,7.44-6.47-2.37-9.8-9.53-7.44-16.01,2.37-6.47,9.53-9.8,16.01-7.44,6.47,2.37,9.8,9.53,7.44,16.01Z"/>
      <path class="cls-2" d="m568.37,497.5c0,6.89-5.59,12.48-12.48,12.48s-12.48-5.59-12.48-12.48,5.59-12.48,12.48-12.48,12.48,5.59,12.48,12.48Z"/>
      <path class="cls-2" d="m544.07,552.52c0,16.26-13.18,29.43-29.43,29.43s-29.43-13.17-29.43-29.43,13.18-29.42,29.43-29.42,29.43,13.17,29.43,29.42Z"/>
      <path class="cls-2" d="m47,126.43c0,8.13-6.59,14.72-14.72,14.72s-14.72-6.59-14.72-14.72,6.59-14.71,14.72-14.71,14.72,6.59,14.72,14.71Z"/>
      <path class="cls-2" d="m121.55,73.11c0,8.13-6.59,14.72-14.72,14.72s-14.72-6.59-14.72-14.72,6.59-14.71,14.72-14.71,14.72,6.59,14.72,14.71Z"/>
      <g>
        <g>
          <g>
            <path class="cls-1" d="m108.03,409.13s-.03,0-.04,0c-.41-.02-.8-.17-1.11-.42,0,0,0,0,0,0l-58.8-46.31c-.35-.27-.41-.77-.15-1.12l6.56-8.75c.26-.35.76-.43,1.12-.17l60.93,43.47c.34.24.59.57.72.94.16.46.09.93-.19,1.29l-7.91,10.55c-.25.34-.66.53-1.12.53Zm-.15-1.7s.06.04.09.05l7.7-10.28s-.04-.04-.07-.06l-60.29-43.02-5.61,7.48,58.18,45.82Zm7.9-10.37s0,0,0,0h0Z"/>
            <path class="cls-1" d="m28.4,346.68c-.18,0-.36-.06-.5-.17l-2.43-1.91c-.73-.57-.93-1.52-.46-2.15l4.97-6.64c.49-.64,1.43-.71,2.2-.17,0,0,0,0,0,0l2.51,1.79c.18.13.3.32.33.54.03.22-.02.44-.15.61l-5.83,7.77c-.13.17-.33.29-.54.32-.04,0-.07,0-.11,0Zm-1.98-3.41s.03.04.06.05l1.77,1.4,4.83-6.45-1.84-1.31s-.05-.03-.07-.04l-4.76,6.35Z"/>
            <path class="cls-1" d="m57.12,343.54c-.2,0-.4-.07-.55-.21-.06-.06-.13-.12-.2-.17l-12.67-9.5c-.06-.05-.1-.07-.15-.1l-.1-.07c-.18-.12-.31-.32-.34-.54-.04-.22.02-.44.15-.62l2.65-3.53c.27-.36.77-.43,1.13-.17l.27.2,12.95,9.72c.36.27.43.78.16,1.13l-2.65,3.53c-.14.18-.34.3-.57.32-.03,0-.05,0-.08,0Zm-12.06-10.89l11.91,8.93,1.67-2.22-11.91-8.94-1.67,2.22Z"/>
            <path class="cls-1" d="m62.43,340.8c-1.23,0-2.42-.4-3.42-1.15l-12.67-9.51c-1.22-.91-2.02-2.25-2.23-3.76-.22-1.52.17-3.03,1.09-4.25h0s3.43-4.58,3.43-4.58c.27-.36.78-.43,1.13-.16l20.54,15.4c.17.13.29.32.32.53.03.21-.02.43-.15.6l-3.43,4.58c-.92,1.22-2.26,2.02-3.77,2.24-.27.04-.55.06-.82.06Zm-15.95-17.69h0c-.66.88-.94,1.96-.78,3.05.16,1.08.72,2.04,1.6,2.7l12.67,9.51c.88.66,1.96.94,3.04.78,1.09-.16,2.05-.72,2.7-1.6l2.95-3.93-19.24-14.43-2.95,3.93Z"/>
            <path class="cls-1" d="m24.21,383.02c-.55,0-1.09-.24-1.44-.68-4.02-4.96-5.88-11.2-5.22-17.57.5-4.89,2.44-9.44,5.61-13.17.11-.19.24-.41.4-.62l13.1-17.48c1.8-2.4,5.18-3,7.69-1.36l.09.06c.08.05.16.11.24.17l12.67,9.49c.11.09.22.18.31.27,2.26,1.94,2.63,5.35.83,7.75l-13.11,17.48c-.92,1.22-2.26,2.02-3.77,2.24-1.51.22-3.02-.17-4.25-1.09l-5.72-4.29c-3.75,5.69-5.73,11.67-5.59,16.9.01.57-.24,1.12-.68,1.48-.13.11-.31.22-.51.3-.01,0-.02,0-.03.01-.21.07-.42.11-.63.11Zm17.04-50.18c-1.25,0-2.49.57-3.29,1.64l-13.11,17.48c-.12.16-.23.34-.32.5-.03.05-.06.09-.09.13-2.98,3.49-4.81,7.76-5.28,12.34-.61,5.94,1.12,11.76,4.87,16.38.06.07.16.1.26.07.03-.02.05-.03.05-.03.07-.06.1-.13.1-.2-.15-5.78,2.1-12.38,6.35-18.56.12-.18.32-.31.54-.34.22-.03.44.02.62.15l6.4,4.8c.88.66,1.96.94,3.04.78,1.09-.16,2.05-.72,2.7-1.6l13.11-17.48c1.29-1.72,1.02-4.16-.61-5.56-.08-.07-.15-.13-.22-.19l-12.67-9.5s-.01,0-.02-.01c-.04-.03-.09-.06-.13-.09l-.1-.07c-.68-.44-1.45-.65-2.21-.65Z"/>
          </g>
          <g>
            <path class="cls-1" d="m85.49,387.72c-.17,0-.34-.05-.48-.16l-1.09-.81c-.36-.27-.43-.78-.16-1.13.27-.36.78-.43,1.13-.16l1.09.81c.36.27.43.78.16,1.13-.16.21-.4.33-.65.33Z"/>
            <path class="cls-1" d="m93.68,393.82c-.17,0-.34-.05-.48-.16l-5.58-4.15c-.36-.27-.43-.77-.17-1.13.27-.36.77-.43,1.13-.17l5.58,4.15c.36.27.43.77.17,1.13-.16.21-.4.33-.65.33Z"/>
          </g>
        </g>
        <g>
          <g>
            <path class="cls-1" d="m337.69,271.43c-2.87,0-5.72-1.15-7.81-3.43l-23.71-25.88c-1.91-2.09-2.89-4.79-2.77-7.61.12-2.83,1.34-5.43,3.42-7.34.02-.02.04-.03.06-.05l30.44-23.23c.33-.25.81-.21,1.09.1l29.68,32.39c.26.29.28.72.05,1.03l-23.2,31.13s-.06.08-.1.11c-2.03,1.86-4.59,2.78-7.14,2.78Zm-29.8-43.04c-1.75,1.61-2.77,3.81-2.87,6.19-.1,2.39.73,4.68,2.35,6.45l23.71,25.88c3.32,3.63,8.96,3.89,12.61.61l22.75-30.53-28.73-31.35-29.82,22.76Zm29.87,28.65c-1.5,0-2.99-.6-4.07-1.79l-14.29-15.59c-1-1.09-1.51-2.5-1.45-3.97.06-1.47.7-2.83,1.79-3.83,1.09-1,2.5-1.51,3.97-1.45,1.47.06,2.83.7,3.83,1.79l14.29,15.59s0,0,0,0c1,1.09,1.51,2.5,1.44,3.97-.06,1.47-.7,2.84-1.79,3.83-1.06.97-2.4,1.45-3.73,1.45Zm-14.29-25.01c-.98,0-1.91.36-2.63,1.02-.77.7-1.22,1.67-1.26,2.71-.05,1.04.32,2.04,1.02,2.81l14.29,15.59c1.45,1.59,3.92,1.69,5.51.24.77-.7,1.22-1.66,1.26-2.71.05-1.04-.32-2.04-1.02-2.81l-14.29-15.59c-.7-.77-1.66-1.22-2.71-1.26-.06,0-.12,0-.17,0Z"/>
            <path class="cls-1" d="m367.48,237.74c-.23,0-.44-.1-.6-.26l-29.67-32.4c-.15-.17-.23-.39-.21-.62.02-.23.14-.44.32-.57l95.12-71.84c.33-.25.8-.21,1.09.1l9.4,10.26c.27.29.28.74.04,1.05l-1.69,2.12.08,3.92c0,.41-.3.77-.71.82l-3.1.4.07,3.48c0,.41-.3.77-.71.82l-3.1.4.07,3.49c0,.41-.3.77-.71.82l-3.1.4.07,3.48c0,.41-.3.77-.71.82l-3.1.4.07,3.48c0,.41-.3.77-.71.82l-3.1.39.07,3.49c0,.41-.3.77-.71.82l-3.1.39.07,3.49c0,.41-.3.77-.71.82l-3.1.39.07,3.49c0,.41-.3.77-.71.82l-3.1.39.07,3.48c0,.41-.3.77-.71.82l-3.1.4.07,3.48c0,.41-.3.77-.71.82l-3.1.4.07,3.48c0,.41-.3.77-.71.82l-3.1.4.07,3.48c0,.41-.3.77-.71.82l-3.1.4.07,3.49c0,.41-.3.77-.71.82l-3.1.4.07,3.48c0,.41-.3.77-.71.82l-3.1.39.07,3.49c0,.41-.3.77-.71.82l-3.1.39.07,3.48c0,.41-.3.77-.71.82l-3.1.39.07,3.48c0,.41-.3.77-.71.82l-3.1.4.07,3.48c0,.41-.3.77-.71.82l-3.1.4.07,3.48c0,.41-.3.77-.71.82l-3.5.45-1.67,2.09c-.15.19-.37.3-.61.3,0,0-.02,0-.03,0Zm-28.47-33.1l28.43,31.04,1.28-1.61c.13-.16.32-.27.53-.3l3.1-.4-.07-3.48c0-.41.3-.77.71-.82l3.1-.4-.07-3.48c0-.41.3-.77.71-.82l3.1-.4-.07-3.48c0-.41.3-.77.71-.82l3.1-.39-.07-3.48c0-.41.3-.77.71-.82l3.1-.39-.07-3.49c0-.41.3-.77.71-.82l3.1-.39-.07-3.48c0-.41.3-.77.71-.82l3.1-.4-.07-3.49c0-.41.3-.77.71-.82l3.1-.4-.07-3.48c0-.41.3-.77.71-.82l3.1-.4-.07-3.48c0-.41.3-.77.71-.82l3.1-.4-.07-3.48c0-.41.3-.77.71-.82l3.1-.4-.07-3.48c0-.41.3-.77.71-.82l3.1-.39-.07-3.49c0-.41.3-.77.71-.82l3.1-.39-.07-3.49c0-.41.3-.77.71-.82l3.1-.39-.07-3.49c0-.41.3-.77.71-.82l3.1-.39-.07-3.48c0-.41.3-.77.71-.82l3.1-.4-.07-3.48c0-.41.3-.77.71-.82l3.1-.4-.07-3.48c0-.41.3-.77.71-.82l3.1-.4-.07-3.48c0-.41.3-.77.71-.82l3.1-.4-.07-3.48c0-.19.06-.37.18-.52l1.44-1.81-8.43-9.21-93.82,70.86Z"/>
          </g>
          <g>
            <path class="cls-1" d="m339.77,216.59c-.22,0-.45-.09-.61-.27l-1.27-1.44c-.3-.34-.26-.85.07-1.14.34-.3.85-.26,1.14.07l1.27,1.44c.3.34.26.85-.07,1.14-.15.14-.35.2-.54.2Z"/>
            <path class="cls-1" d="m349.33,227.41c-.22,0-.45-.09-.61-.27l-6.5-7.36c-.3-.34-.26-.85.07-1.14.34-.3.85-.26,1.14.07l6.5,7.36c.3.34.26.85-.07,1.14-.15.14-.35.2-.54.2Z"/>
          </g>
        </g>
        <g>
          <g>
            <path class="cls-1" d="m181.93,380.61c-.22,0-.45-.02-.68-.05,0,0,0,0-.01,0l-78.61-13.42c-1.13-.18-2.14-.8-2.82-1.74-.68-.94-.95-2.08-.77-3.22l2.85-17.89c.18-1.14.8-2.15,1.73-2.83.94-.68,2.08-.95,3.22-.77l78.62,13.43c1.13.18,2.13.8,2.81,1.73.68.94.95,2.08.77,3.22l-2.85,17.89c-.34,2.13-2.19,3.65-4.28,3.65Zm-.42-1.65c1.47.23,2.86-.78,3.1-2.26l2.85-17.88c.11-.71-.06-1.43-.48-2.02-.43-.59-1.05-.97-1.77-1.08l-78.62-13.43c-.7-.11-1.42.06-2.01.49s-.97,1.05-1.09,1.77l-2.85,17.89c-.11.71.06,1.43.48,2.02s1.05.97,1.77,1.09l78.61,13.42Z"/>
            <path class="cls-1" d="m194.75,372.98c-.19,0-.38-.02-.57-.05l-7.96-1.27c-.21-.03-.4-.15-.53-.32-.13-.17-.18-.39-.14-.6l.89-5.59c.07-.44.48-.74.93-.67l3.32.52c.37.06.68-.1.88-.24.48-.34.83-.97.94-1.68l2.42-15.19c.1-.61,0-1.22-.25-1.68-.13-.23-.41-.63-.88-.71l-37.85-6.03c-2.36-.38-3.9-3.07-3.43-6l4.27-29.51c.03-.21.15-.41.32-.54.17-.13.39-.18.61-.15l5.84.93c.44.07.74.48.67.91l-3.64,25.49c-.11.71.03,1.42.37,1.89.14.2.39.45.76.51l37.85,6.03c.98.15,1.86.72,2.5,1.59.85,1.17,1.19,2.78.93,4.4l-3.7,23.25c-.22,1.38-.85,2.63-1.77,3.5-.82.78-1.79,1.19-2.78,1.19Zm-7.47-2.79l7.16,1.14s0,0,0,0c.67.11,1.38-.15,1.99-.72.66-.63,1.12-1.54,1.28-2.57l3.7-23.26c.19-1.19-.05-2.38-.64-3.2-.27-.37-.74-.84-1.44-.95l-37.85-6.03c-.71-.11-1.36-.52-1.82-1.16-.6-.83-.84-1.95-.66-3.08l3.52-24.68-4.24-.68-4.16,28.71c-.33,2.06.61,3.92,2.08,4.16l37.85,6.03c.85.13,1.6.69,2.05,1.53.42.78.57,1.74.42,2.71l-2.42,15.19c-.18,1.14-.76,2.14-1.59,2.74-.63.46-1.37.64-2.08.53l-2.52-.4-.64,3.99Z"/>
            <path class="cls-1" d="m165.17,306.05c-.23,0-.47-.02-.7-.06l-8.21-1.31c-1.19-.19-2.24-.83-2.95-1.81-.71-.98-1-2.18-.81-3.37l5.04-31.63c.4-2.47,2.72-4.16,5.19-3.76l8.21,1.3c2.46.4,4.15,2.72,3.77,5.19,0,0,0,0,0,0l-5.04,31.62c-.35,2.23-2.29,3.82-4.48,3.82Zm-3.17-40.37c-1.4,0-2.64,1.02-2.87,2.45l-5.04,31.62c-.12.77.06,1.53.52,2.16.46.63,1.13,1.04,1.9,1.16l8.21,1.31c1.58.25,3.08-.84,3.33-2.42l5.04-31.61c.25-1.59-.84-3.09-2.42-3.34l-8.21-1.3c-.15-.02-.31-.04-.46-.04Zm11.89,4.81h0,0Z"/>
          </g>
          <g>
            <path class="cls-1" d="m108.05,362.52s-.09,0-.13-.01l-1.35-.22c-.44-.07-.74-.49-.67-.93.07-.44.49-.74.93-.67l1.35.22c.44.07.74.49.67.93-.06.4-.41.68-.8.68Z"/>
            <path class="cls-1" d="m118.2,364.13s-.08,0-.13-.01l-6.91-1.09c-.44-.07-.74-.48-.67-.93.07-.44.48-.74.93-.67l6.91,1.09c.44.07.74.48.67.93-.06.4-.41.68-.8.68Z"/>
          </g>
        </g>
        <g>
          <g>
            <path class="cls-1" d="m334.39,474.02s-.09,0-.14-.01l-4.56-.8c-.44-.08-.73-.5-.66-.94l5.91-33.57c.08-.44.5-.73.94-.66l4.56.8c.21.04.4.16.52.33s.17.39.13.61l-5.91,33.57c-.07.39-.41.67-.8.67Zm-3.62-2.27l2.96.52,5.63-31.98-2.97-.52-5.63,31.98Z"/>
            <path class="cls-1" d="m329.83,473.22s-.06,0-.09,0l-31.99-3.53c-.22-.02-.42-.14-.56-.32-.13-.18-.19-.41-.15-.63l1.6-9.08c.06-.35.35-.62.71-.66l3.62-.41-3.26-1.36c-.35-.15-.55-.51-.49-.89l2.84-16.1c.08-.42.47-.72.9-.66l12.76,1.56-12.39-4.13c-.38-.13-.61-.51-.54-.91l.89-5.04c.04-.22.17-.42.36-.54s.42-.16.64-.11l31.26,7.65c.41.1.68.51.61.93l-5.91,33.57c-.07.39-.41.67-.8.67Zm-31.04-5.05l30.38,3.35,5.64-32.08-29.68-7.26-.62,3.5,19.4,6.46c.39.13.63.54.53.95-.09.41-.48.68-.89.63l-20.03-2.46-2.59,14.71,5.53,2.31c.34.14.54.5.49.86-.05.37-.34.65-.71.69l-6.12.7-1.35,7.64Z"/>
            <path class="cls-1" d="m341.7,475.23c-.34,0-.69-.03-1.04-.09l-10.98-1.93c-.44-.08-.73-.5-.66-.94l5.91-33.57c.04-.21.16-.4.33-.52.18-.12.39-.17.61-.13l10.97,1.93c3.25.57,5.43,3.68,4.86,6.93l-.29,1.62c-.3,1.78,0,3.21.9,4.26,1.87,2.18,5.78,2.15,5.81,2.15.81.02,19.13.41,22.08.92,5.34.94,9.07,5.24,8.31,9.59-.38,2.14-1.76,3.96-3.9,5.12-2.08,1.13-4.63,1.5-7.18,1.05-2.93-.52-12.99-3.7-21.11-6.69-.08-.03-.19-.07-.32-.11-1.27-.46-4.23-1.53-6.15-.34-1.09.68-1.76,2.07-1.98,4.12,0,.02,0,.04,0,.05l-.29,1.64c-.51,2.9-3.05,4.95-5.9,4.95Zm-10.94-3.48l10.18,1.79c2.37.42,4.64-1.17,5.06-3.55l.28-1.61c.28-2.56,1.19-4.34,2.73-5.3,2.58-1.61,6.07-.35,7.56.19.12.04.22.08.31.11,8.06,2.96,17.99,6.11,20.84,6.62,2.2.39,4.37.07,6.13-.88,1.69-.92,2.79-2.33,3.08-3.98.61-3.47-2.53-6.92-6.99-7.71-2.83-.49-21.61-.89-21.8-.9-.16,0-4.66.06-7.03-2.7-1.23-1.43-1.66-3.31-1.27-5.59l.29-1.62c.42-2.37-1.17-4.64-3.55-5.06l-10.18-1.79-5.63,31.98Zm48.37-5.9c-.19,0-.39-.02-.6-.05-.8-.14-1.5-.55-1.9-1.13-.3-.42-.41-.92-.33-1.38.2-1.15,1.5-1.86,2.96-1.6.64.11,1.23.4,1.64.82.48.48.7,1.1.6,1.7,0,0,0,0,0,0-.18.99-1.16,1.65-2.36,1.65Zm-.45-2.6c-.45,0-.76.18-.78.31-.01.06.04.14.06.17.12.17.41.38.86.46.61.11,1.06-.13,1.08-.28.01-.07-.05-.17-.14-.27-.18-.18-.46-.31-.77-.37-.11-.02-.21-.03-.3-.03Zm2.02.81h0,0Z"/>
            <path class="cls-1" d="m333.01,455.17c-.05,0-.11,0-.17-.02l-7.6-1.59c-.44-.09-.72-.52-.63-.96.09-.44.52-.72.96-.63l7.6,1.59c.44.09.72.52.63.96-.08.38-.42.65-.79.65Z"/>
            <path class="cls-1" d="m330.96,466.8s-.06,0-.08,0l-15.48-1.61c-.45-.05-.77-.44-.72-.89.05-.45.44-.77.89-.72l15.48,1.61c.45.05.77.44.72.89-.04.42-.4.73-.8.73Z"/>
          </g>
          <g>
            <path class="cls-1" d="m341.75,454.41s-.09,0-.14-.01c-.44-.08-.74-.5-.66-.94l.21-1.2c.08-.44.49-.73.94-.66.44.08.74.5.66.94l-.21,1.2c-.07.39-.41.67-.8.67Z"/>
            <path class="cls-1" d="m342.47,450.32s-.09,0-.14-.01c-.44-.08-.73-.5-.66-.94l1.09-6.16c.08-.44.5-.73.94-.66.44.08.73.5.66.94l-1.09,6.16c-.07.39-.41.67-.8.67Z"/>
          </g>
        </g>
        <g>
          <g>
            <path class="cls-1" d="m343.63,589.19h-85.94c-.45,0-.81-.36-.81-.81v-71.93l-17.34.1h0c-.36,0-.67-.24-.78-.58-.1-.34.03-.72.34-.91l61.49-39.8c.27-.17.61-.17.88,0l60.77,39.07c.3.19.44.56.34.91-.1.34-.41.58-.77.58l-17.35.1v72.45c0,.45-.36.81-.81.81Zm-85.13-1.62h84.32v-72.44c0-.45.36-.81.81-.81l15.43-.09-58.03-37.31-58.72,38.01,15.39-.09c.23,0,.42.08.58.24s.24.36.24.57v71.94Z"/>
            <path class="cls-1" d="m295.31,589.19h-26.46c-.45,0-.81-.36-.81-.81v-52.35c0-.45.36-.81.81-.81h26.46c.45,0,.81.36.81.81v52.35c0,.45-.36.81-.81.81Zm-25.65-1.62h24.84v-50.73h-24.84v50.73Z"/>
            <g>
              <path class="cls-1" d="m334.28,551.1h-28.5c-.45,0-.81-.36-.81-.81v-28.5c0-.45.36-.81.81-.81h28.5c.45,0,.81.36.81.81v28.5c0,.45-.36.81-.81.81Zm-27.69-1.62h26.88v-26.88h-26.88v26.88Z"/>
              <path class="cls-1" d="m320.03,551.1c-.45,0-.81-.36-.81-.81v-28.5c0-.45.36-.81.81-.81s.81.36.81.81v28.5c0,.45-.36.81-.81.81Z"/>
              <path class="cls-1" d="m334.28,536.85h-28.5c-.45,0-.81-.36-.81-.81s.36-.81.81-.81h28.5c.45,0,.81.36.81.81s-.36.81-.81.81Z"/>
            </g>
          </g>
          <path class="cls-1" d="m362.46,589.19h-123.61c-.45,0-.81-.36-.81-.81s.36-.81.81-.81h123.61c.45,0,.81.36.81.81s-.36.81-.81.81Z"/>
          <g>
            <path class="cls-1" d="m270.14,504.04c-.27,0-.54-.14-.69-.39-.23-.38-.11-.88.27-1.11l1.76-1.08c.38-.23.88-.11,1.11.27.23.38.11.88-.27,1.11l-1.76,1.08c-.13.08-.28.12-.42.12Z"/>
            <path class="cls-1" d="m276.11,500.37c-.27,0-.54-.14-.69-.39-.23-.38-.11-.88.27-1.11l8.99-5.52c.38-.23.88-.11,1.11.27s.11.88-.27,1.11l-8.99,5.52c-.13.08-.28.12-.42.12Z"/>
          </g>
        </g>
        <g>
          <path class="cls-1" d="m180.22,199.99c-1.41,0-2.78-.53-3.84-1.52-1.39-1.3-2.04-3.19-1.72-5.07l6.41-41.78c0-.06.94-4.97,5.19-6.02,3.34-.95,6.18,1.42,7.33,2.97l24.96,34.17c1.14,1.52,1.44,3.5.79,5.3-.64,1.79-2.13,3.13-3.99,3.58l-33.78,8.21c-.45.11-.9.16-1.35.16Zm7.6-52.99c-.36,0-.74.05-1.13.16-.01,0-.02,0-.03,0-3.2.78-3.98,4.67-3.99,4.7l-6.41,41.78c-.23,1.35.23,2.71,1.23,3.63,1,.93,2.38,1.29,3.7.97l33.78-8.21c1.32-.32,2.38-1.28,2.84-2.56.46-1.28.25-2.69-.57-3.78l-24.96-34.17c-.08-.11-1.91-2.53-4.46-2.53Zm-1.35-.62h0,0Z"/>
          <path class="cls-1" d="m194.61,196.63c-.15,0-.3-.04-.43-.12-.18-.11-.32-.3-.36-.51-1.13-5.02-1.86-9.75-2.05-13.32-.22-4.27.29-6.32,1.67-6.66,1.38-.34,2.78,1.25,4.54,5.15,1.47,3.26,3,7.8,4.3,12.78.05.21.02.43-.09.62-.11.19-.29.32-.5.37l-6.89,1.67c-.06.02-.13.02-.19.02Zm-.78-19.02c-.68.76-.95,6.54,1.39,17.22l5.28-1.28c-2.83-10.56-5.71-15.58-6.67-15.94Z"/>
          <path class="cls-1" d="m199.6,209.67c-.15,0-.29-.04-.42-.12-.18-.11-.32-.29-.37-.5l-3.27-13.46c-.11-.43.16-.87.6-.98l3.6-.88c.21-.05.43-.02.61.1s.32.29.37.5l3.27,13.46c.11.43-.16.87-.6.98l-3.6.88c-.06.02-.13.02-.19.02Zm-2.29-13.67l2.89,11.88,2.03-.49-2.89-11.88-2.03.49Z"/>
          <path class="cls-1" d="m204.53,238.08c-.64,0-1.27-.17-1.83-.52-.81-.49-1.37-1.26-1.6-2.18l-5.53-22.74c-.22-.92-.07-1.87.42-2.68.49-.8,1.27-1.37,2.18-1.59l5.9-1.44c.92-.22,1.87-.07,2.67.42.81.49,1.37,1.27,1.59,2.18l5.53,22.74s0,0,0,0c.46,1.89-.71,3.8-2.6,4.27l-5.91,1.43c-.28.07-.56.1-.84.1Zm.39-29.63c-.15,0-.3.02-.45.05l-5.9,1.44c-.5.12-.92.42-1.18.86-.27.44-.35.95-.23,1.45l5.53,22.74c.12.5.43.92.86,1.18.44.27.95.34,1.44.22l5.91-1.43c1.02-.25,1.65-1.29,1.41-2.31l-5.53-22.74c-.12-.5-.43-.92-.86-1.18-.3-.19-.64-.28-.99-.28Z"/>
          <g>
            <path class="cls-1" d="m183.34,171.94s-.06,0-.09,0c-.44-.05-.77-.45-.72-.89l.1-.97c.05-.44.44-.77.89-.72.44.05.77.45.72.89l-.1.97c-.04.42-.4.72-.8.72Z"/>
            <path class="cls-1" d="m183.69,168.64s-.06,0-.09,0c-.44-.05-.77-.45-.72-.89l.52-4.97c.05-.44.45-.77.89-.72.44.05.77.45.72.89l-.52,4.97c-.04.42-.4.73-.8.73Z"/>
          </g>
        </g>
        <g>
          <g>
            <path class="cls-1" d="m126.14,481.71h-25.84c-.33,0-.63-.2-.75-.52l-12.92-33.15c-.12-.31-.04-.67.21-.9l12.92-11.61c.15-.13.34-.21.54-.21h25.84c.2,0,.39.07.54.21l12.92,11.61c.25.23.34.58.21.9l-12.92,33.15c-.12.31-.42.52-.75.52Zm-25.28-1.62h24.73l12.51-32.11-12.27-11.02h-25.22l-12.27,11.02,12.52,32.11Z"/>
            <path class="cls-1" d="m94.1,465.81c-.06,0-.11,0-.17-.02-.27-.06-.49-.24-.59-.5l-3.04-7.79c-.12-.3-.05-.64.18-.87l21.06-21.06c.15-.15.36-.24.57-.24h10.83c.33,0,.62.2.75.5.13.3.06.65-.18.88l-28.86,28.86c-.15.15-.36.24-.57.24Zm-2.09-8.4l2.39,6.14,26.6-26.6h-8.54l-20.45,20.45Z"/>
            <path class="cls-1" d="m114.72,481.71h-14.41c-.33,0-.63-.2-.75-.52l-.5-1.29c-.12-.3-.05-.64.18-.87l35.36-35.36c.3-.3.79-.32,1.11-.03l3.9,3.5c.25.23.34.58.21.9l-5.62,14.43c-.04.1-.1.2-.18.28-6.24,6.24-12.48,12.48-18.72,18.72-.15.15-.36.24-.57.24Zm-13.86-1.62h13.53c6.12-6.12,12.24-12.24,18.36-18.36l5.36-13.75-2.91-2.61-34.44,34.44.11.28Z"/>
          </g>
          <path class="cls-1" d="m118.23,436.92h-10.01c-.45,0-.81-.36-.81-.81v-4.63c0-3.21,2.61-5.82,5.82-5.82s5.82,2.61,5.82,5.82v4.63c0,.45-.36.81-.81.81Zm-9.2-1.62h8.39v-3.82c0-2.31-1.88-4.2-4.2-4.2s-4.2,1.88-4.2,4.2v3.82Z"/>
          <path class="cls-1" d="m113.22,432.1c-.45,0-.81-.36-.81-.81v-11.53c0-.45.36-.81.81-.81s.81.36.81.81v11.53c0,.45-.36.81-.81.81Z"/>
          <path class="cls-1" d="m115.45,527.6c-10.53,0-19.1-8.57-19.1-19.1,0-8.65,5.97-16.32,14.3-18.48v-9.12c0-.45.36-.81.81-.81h4.4c.45,0,.81.36.81.81v14.26c0,.45-.36.81-.81.81h-.8c-6.8.2-12.14,5.7-12.14,12.52s5.62,12.54,12.54,12.54c6.05,0,11.21-4.3,12.32-10.23-.01-2.14.66-5.67,3.25-5.74.86-.03,1.61.28,2.17.88,1.46,1.56,1.23,4.65,1.19,5-1.23,9.5-9.37,16.65-18.93,16.65Zm-3.18-45.89v8.94c0,.38-.26.71-.63.79-7.92,1.77-13.66,8.94-13.66,17.05,0,9.64,7.84,17.48,17.48,17.48,8.75,0,16.2-6.54,17.32-15.21.06-.71.05-2.84-.77-3.71-.25-.26-.55-.38-.94-.37-1.43.04-1.69,3.3-1.68,4.18,0,.05,0,.1-.01.15-1.21,6.74-7.07,11.64-13.93,11.64-7.81,0-14.16-6.35-14.16-14.16s6.03-13.92,13.74-14.14h.01v-12.64h-2.78Z"/>
          <g>
            <path class="cls-1" d="m114.88,475.8c-.21,0-.42-.08-.58-.25-.31-.32-.3-.83.02-1.15l1.07-1.03c.32-.31.83-.3,1.15.02.31.32.3.83-.02,1.15l-1.07,1.03c-.16.15-.36.23-.56.23Z"/>
            <path class="cls-1" d="m118.51,472.29c-.21,0-.42-.08-.58-.25-.31-.32-.3-.83.02-1.15l5.47-5.29c.32-.31.83-.3,1.15.02.31.32.3.83-.02,1.15l-5.47,5.29c-.16.15-.36.23-.56.23Z"/>
          </g>
        </g>
        <g>
          <path class="cls-1" d="m286.59,328.3c-.6,0-1.2-.06-1.81-.17l-74.82-14.34c-2.52-.48-4.7-1.92-6.15-4.04-1.44-2.13-1.97-4.68-1.49-7.21l9.26-48.29c.48-2.52,1.92-4.71,4.04-6.15,2.13-1.44,4.68-1.97,7.21-1.49l74.82,14.34c5.21,1,8.63,6.05,7.63,11.25l-9.25,48.29h0c-.88,4.6-4.92,7.8-9.44,7.8Zm-65.59-80.24c-1.58,0-3.13.47-4.47,1.38-1.77,1.2-2.96,3.01-3.36,5.11l-9.26,48.29c-.4,2.1.04,4.22,1.24,5.99,1.2,1.77,3.01,2.96,5.11,3.36l74.82,14.34c4.33.83,8.52-2.02,9.35-6.35l9.25-48.29c.83-4.33-2.02-8.53-6.35-9.36l-74.82-14.34c-.51-.1-1.02-.14-1.52-.14Zm74.23,72.28h0,0Z"/>
          <g>
            <path class="cls-1" d="m218.38,321.07c-.11,0-.22-.01-.33-.03l-7.59-1.46c-.45-.08-.83-.34-1.09-.72-.26-.38-.35-.83-.26-1.28l.88-4.62c.08-.44.51-.73.95-.64l9.35,1.79c.21.04.4.16.52.34.12.18.17.4.13.61l-.88,4.62c-.09.45-.34.84-.72,1.09-.28.19-.61.29-.95.29Zm-6.95-6.99l-.73,3.82s0,.04.01.06c.01.02.03.03.05.03l7.6,1.46s.03,0,.06-.01c.01,0,.03-.03.04-.05l.73-3.82-7.76-1.49Z"/>
            <path class="cls-1" d="m282.49,333.35c-.1,0-.21,0-.32-.03l-7.6-1.46c-.92-.18-1.53-1.08-1.35-1.99l.88-4.61c.04-.21.16-.4.34-.52.18-.12.4-.17.61-.13l9.35,1.79c.44.08.73.51.64.95l-.88,4.61c-.16.81-.87,1.38-1.67,1.38Zm-6.95-6.99l-.73,3.82s.02.09.07.1l7.59,1.46s.09-.02.1-.07l.73-3.82-7.76-1.49Z"/>
          </g>
          <path class="cls-1" d="m280.45,259.29c-.05,0-.1,0-.15-.01l-9.79-1.88c-.44-.08-.73-.51-.64-.95l1.25-6.51c.12-.63-.01-1.28-.37-1.81-.36-.53-.91-.9-1.55-1.02l-14.8-2.84c-1.31-.25-2.58.61-2.83,1.92l-1.25,6.51c-.04.21-.16.4-.34.52-.18.12-.4.17-.61.13l-9.79-1.88c-.21-.04-.4-.16-.52-.34-.12-.18-.17-.4-.13-.61l2.77-14.43c.3-1.55,1.18-2.89,2.48-3.78,1.31-.89,2.88-1.21,4.43-.91l30.7,5.88c3.2.61,5.3,3.72,4.69,6.92l-2.77,14.43c-.07.39-.41.66-.79.66Zm-8.84-3.33l8.2,1.57,2.61-13.63c.44-2.32-1.08-4.57-3.41-5.02l-30.7-5.88c-1.13-.22-2.27.02-3.22.66-.95.64-1.59,1.62-1.8,2.74l-2.61,13.64,8.2,1.57,1.09-5.71c.42-2.19,2.54-3.62,4.73-3.2l14.8,2.84c1.06.2,1.98.81,2.58,1.7.61.89.83,1.97.62,3.03l-1.09,5.71Z"/>
          <path class="cls-1" d="m301.16,290.25c-.05,0-.1,0-.15-.01l-16.7-3.2c-.44-.08-.73-.51-.64-.95l1.02-5.3-5.53-1.06-1.02,5.3c-.04.21-.16.4-.34.52-.18.12-.4.17-.61.13l-44.48-8.53c-.21-.04-.4-.16-.52-.34-.12-.18-.17-.4-.13-.61l1.02-5.3-5.53-1.06-1.02,5.3c-.08.44-.51.73-.95.64l-16.7-3.2c-.44-.08-.73-.51-.64-.95l3.33-17.38c.48-2.52,1.92-4.71,4.04-6.15,2.13-1.44,4.68-1.97,7.21-1.49l74.82,14.34h0c5.21,1,8.63,6.05,7.63,11.25l-3.33,17.38c-.04.21-.16.4-.34.52-.14.09-.29.14-.45.14Zm-15.75-4.65l15.11,2.9,3.18-16.59c.83-4.33-2.02-8.53-6.35-9.36l-74.82-14.34c-2.1-.4-4.22.04-5.99,1.24-1.77,1.2-2.96,3.01-3.36,5.11l-3.18,16.59,15.11,2.9,1.02-5.3c.08-.44.51-.73.95-.64l7.12,1.36c.21.04.4.16.52.34.12.18.17.4.13.61l-1.02,5.3,42.89,8.22,1.02-5.3c.04-.21.16-.4.34-.52.18-.12.4-.17.61-.13l7.12,1.36c.44.08.73.51.64.95l-1.02,5.3Z"/>
          <path class="cls-1" d="m230.84,287.73c-.05,0-.1,0-.15-.01l-7.12-1.36c-.21-.04-.4-.16-.52-.34-.12-.18-.17-.4-.13-.61l3.19-16.67c.08-.44.51-.73.95-.64l7.12,1.36c.21.04.4.16.52.34.12.18.17.4.13.61l-3.19,16.67c-.04.21-.16.4-.34.52-.14.09-.29.14-.45.14Zm-6.17-2.82l5.53,1.06,2.89-15.08-5.53-1.06-2.89,15.08Z"/>
          <path class="cls-1" d="m282.43,297.62c-.05,0-.1,0-.15-.01l-7.12-1.36c-.44-.08-.73-.51-.64-.95l3.19-16.67c.04-.21.16-.4.34-.52.18-.12.4-.17.61-.13l7.12,1.36c.44.08.73.51.64.95l-3.19,16.67c-.04.21-.16.4-.34.52-.14.09-.29.14-.45.14Zm-6.17-2.82l5.53,1.06,2.89-15.08-5.53-1.06-2.89,15.08Z"/>
          <g>
            <path class="cls-1" d="m223.62,253.88c-.05,0-.1,0-.16-.02l-1.28-.25c-.44-.09-.73-.51-.64-.95s.51-.73.95-.64l1.28.25c.44.09.73.51.64.95-.08.39-.41.65-.79.65Z"/>
            <path class="cls-1" d="m233.24,255.73c-.05,0-.1,0-.15-.01l-6.55-1.26c-.44-.08-.73-.51-.64-.95s.51-.73.95-.64l6.55,1.26c.44.08.73.51.64.95-.07.39-.41.66-.79.66Z"/>
          </g>
        </g>
        <g>
          <path class="cls-1" d="m448.04,331.39h-123.75c-.45,0-.81-.36-.81-.81v-33.97c0-.45.36-.81.81-.81h123.75c.45,0,.81.36.81.81v33.97c0,.45-.36.81-.81.81Zm-122.94-1.62h122.13v-32.35h-122.13v32.35Z"/>
          <path class="cls-1" d="m339.66,331.39h-13.15c-.33,0-.62-.2-.75-.5-.13-.3-.06-.65.18-.88l33.97-33.97c.15-.15.36-.24.57-.24h13.15c.33,0,.62.2.75.5s.06.65-.18.88l-33.97,33.97c-.15.15-.36.24-.57.24Zm-11.2-1.62h10.86l32.35-32.35h-10.86l-32.35,32.35Z"/>
          <path class="cls-1" d="m382.13,331.39h-14.97c-.33,0-.62-.2-.75-.5-.13-.3-.06-.65.18-.88l33.97-33.97c.15-.15.36-.24.57-.24h14.97c.33,0,.62.2.75.5.13.3.06.65-.18.88l-33.97,33.97c-.15.15-.36.24-.57.24Zm-13.02-1.62h12.68l32.35-32.35h-12.68l-32.35,32.35Z"/>
          <path class="cls-1" d="m424.9,331.39h-15.28c-.33,0-.62-.2-.75-.5-.13-.3-.06-.65.18-.88l15.24-15.25c6.24-6.24,12.48-12.48,18.73-18.73.15-.15.36-.24.57-.24h4.45c.45,0,.81.36.81.81v10.82c0,.21-.09.42-.24.57l-23.15,23.15c-.15.15-.36.24-.57.24Zm-13.32-1.62h12.98l22.67-22.68v-9.68h-3.31c-6.16,6.16-12.33,12.33-18.49,18.49l-13.86,13.86Zm36.47-22.34h0,0Z"/>
          <path class="cls-1" d="m339.63,297.41c-4.8,0-8.7-3.9-8.7-8.7s3.9-8.7,8.7-8.7,8.7,3.9,8.7,8.7-3.9,8.7-8.7,8.7Zm0-15.77c-3.9,0-7.08,3.17-7.08,7.08s3.17,7.08,7.08,7.08,7.08-3.18,7.08-7.08-3.17-7.08-7.08-7.08Z"/>
          <path class="cls-1" d="m432.71,297.41c-4.8,0-8.7-3.9-8.7-8.7s3.9-8.7,8.7-8.7,8.69,3.9,8.69,8.7-3.9,8.7-8.69,8.7Zm0-15.77c-3.9,0-7.08,3.17-7.08,7.08s3.17,7.08,7.08,7.08,7.07-3.18,7.07-7.08-3.17-7.08-7.07-7.08Z"/>
          <path class="cls-1" d="m345.22,410.85h-12.43c-.45,0-.81-.36-.81-.81v-79.47c0-.45.36-.81.81-.81h12.43c.45,0,.81.36.81.81v79.47c0,.45-.36.81-.81.81Zm-11.62-1.62h10.81v-77.85h-10.81v77.85Z"/>
          <path class="cls-1" d="m426.49,367.18h-81.27c-.45,0-.81-.36-.81-.81v-12.44c0-.45.36-.81.81-.81h81.27c.45,0,.81.36.81.81v12.44c0,.45-.36.81-.81.81Zm-80.46-1.62h79.65v-10.82h-79.65v10.82Z"/>
          <path class="cls-1" d="m445.92,367.18h-6.99c-.45,0-.81-.36-.81-.81v-12.44c0-.45.36-.81.81-.81h6.99c.45,0,.81.36.81.81v12.44c0,.45-.36.81-.81.81Zm-6.18-1.62h5.37v-10.82h-5.37v10.82Z"/>
          <path class="cls-1" d="m332.78,367.18h-6.99c-.45,0-.81-.36-.81-.81v-12.44c0-.45.36-.81.81-.81h6.99c.45,0,.81.36.81.81v12.44c0,.45-.36.81-.81.81Zm-6.18-1.62h5.37v-10.82h-5.37v10.82Z"/>
          <path class="cls-1" d="m438.93,410.85h-12.44c-.45,0-.81-.36-.81-.81v-79.47c0-.45.36-.81.81-.81h12.44c.45,0,.81.36.81.81v79.47c0,.45-.36.81-.81.81Zm-11.63-1.62h10.82v-77.85h-10.82v77.85Z"/>
          <path class="cls-1" d="m353.24,422.91h-28.22c-.45,0-.81-.36-.81-.81v-4.29c0-4.73,3.85-8.58,8.58-8.58h12.69c4.73,0,8.58,3.85,8.58,8.58v4.29c0,.45-.36.81-.81.81Zm-27.41-1.62h26.6v-3.48c0-3.84-3.12-6.96-6.96-6.96h-12.69c-3.84,0-6.96,3.12-6.96,6.96v3.48Z"/>
          <path class="cls-1" d="m446.69,422.91h-28.22c-.45,0-.81-.36-.81-.81v-4.29c0-4.73,3.85-8.58,8.58-8.58h12.69c4.73,0,8.58,3.85,8.58,8.58v4.29c0,.45-.36.81-.81.81Zm-27.41-1.62h26.6v-3.48c0-3.84-3.12-6.96-6.96-6.96h-12.69c-3.84,0-6.96,3.12-6.96,6.96v3.48Z"/>
          <g>
            <path class="cls-1" d="m337.11,351.16h0c.45,0,.81.36.81.81v1.97c0,.45-.36.81-.81.81h0c-.45,0-.81-.36-.81-.81v-1.97c0-.45.36-.81.81-.81Z"/>
            <path class="cls-1" d="m337.12,336.4h0c.45,0,.81.36.81.81v10.05c0,.45-.36.81-.81.81h0c-.45,0-.81-.36-.81-.81v-10.05c0-.45.36-.81.81-.81Z"/>
          </g>
        </g>
        <g>
          <g>
            <path class="cls-1" d="m447.21,513.1c-.12,0-.25-.03-.36-.09-.2-.1-.35-.28-.41-.5l-2.91-9.97c-.11-.38.07-.79.43-.96l8.95-4.22c.4-.19.89-.02,1.08.39l1.43,3.02c1.83,3.87.16,8.5-3.71,10.33l-3.65,1.72c-.18.09-.37.16-.53.22h-.03c-.09.05-.19.06-.28.06Zm-1.94-10.35l2.46,8.43,3.28-1.55c3.06-1.44,4.38-5.11,2.93-8.17l-1.08-2.29-7.59,3.58Z"/>
            <path class="cls-1" d="m482.27,458.74c-.3,0-.59-.17-.73-.46l-1.15-2.43c-.09-.19-.1-.42-.03-.62.07-.2.22-.37.42-.46l23.75-11.21s0,0,0,0c.43-.2,1.72-.62,2.89-.9,1.79-.43,2.98-.53,3.39.33.41.86-.43,1.72-1.9,2.83-.96.72-2.11,1.45-2.54,1.65l-23.75,11.2c-.11.05-.23.08-.35.08Zm-.07-2.86l.46.97,23.02-10.86c.48-.23,1.9-1.17,2.83-1.92-1.17.23-2.8.73-3.29.95l-23.02,10.86Z"/>
            <path class="cls-1" d="m448.46,517.39c-.12,0-.24-.03-.34-.08-.21-.1-.37-.28-.43-.51l-1.25-4.29c-.12-.41.1-.84.49-.99h.03c.14-.06.27-.11.39-.17l3.67-1.73c3.06-1.44,4.38-5.11,2.93-8.17l-1.43-3.02c-.09-.19-.1-.42-.03-.62.07-.2.22-.37.42-.46l3.76-1.78c.41-.19.89-.02,1.08.39l1.93,4.08c2.58,5.47.23,12.03-5.25,14.62l-5.35,2.52c-.07.03-.13.06-.2.08l-.09.04c-.1.04-.21.07-.32.07Zm-.27-4.63l.79,2.7,4.76-2.24c4.67-2.21,6.67-7.8,4.47-12.46l-1.58-3.35-2.3,1.08,1.08,2.29h0c1.83,3.87.16,8.5-3.71,10.33l-3.51,1.66Z"/>
            <path class="cls-1" d="m431.52,541.66c-.11,0-.23-.02-.33-.07-.22-.1-.38-.29-.44-.51l-8.21-28.63c-.11-.38.07-.79.43-.96l20.99-9.9c.21-.1.46-.1.68,0,.22.1.38.28.44.51l4.16,14.26,4.04,14.38c.11.38-.08.78-.43.95l-20.99,9.9c-.11.05-.23.08-.35.08Zm-7.24-29l7.75,27.05,19.5-9.2-3.86-13.71-3.9-13.34-19.51,9.2Z"/>
            <path class="cls-1" d="m433.02,551.18c-1.46,0-2.86-.82-3.52-2.22l-1.45-3.07c-.44-.94-.49-2-.14-2.98.35-.97,1.06-1.75,2-2.19l1.27-.6,21.1-9.95c.91-.43,1.96-.48,2.94-.13.98.35,1.76,1.06,2.2,2l1.45,3.07c.44.94.49,1.99.14,2.97-.35.98-1.06,1.76-2,2.2l-22.35,10.54c-.53.25-1.09.37-1.65.37Zm20.89-19.75c-.33,0-.66.07-.97.22l-.12.05-22.23,10.49s0,0,0,0c-.54.26-.96.71-1.16,1.28-.21.57-.18,1.19.08,1.74l1.45,3.07c.53,1.13,1.88,1.61,3.01,1.08l22.35-10.54c.55-.26.96-.71,1.16-1.28.2-.57.17-1.18-.08-1.73l-1.45-3.07c-.26-.54-.71-.96-1.28-1.16-.25-.09-.51-.13-.76-.13Zm-23.66,10.03h0,0Z"/>
            <path class="cls-1" d="m477.72,472.93c-.1,0-.21-.02-.3-.06-.21-.08-.37-.25-.45-.46-.07-.19-.14-.36-.21-.52l-9.91-21c-.08-.17-.17-.33-.27-.5-.11-.2-.14-.43-.07-.65.07-.22.22-.39.43-.49l2.3-1.09c4.28-2.02,8.71-1.32,10.08,1.58l6.24,13.23c1.37,2.91-.91,6.77-5.19,8.79l-2.3,1.08c-.11.05-.23.08-.34.08Zm-9.33-22.57l9.75,20.67,1.54-.72c3.34-1.58,5.37-4.61,4.42-6.63l-6.24-13.23s0,0,0,0c-.95-2.01-4.58-2.38-7.92-.81l-1.54.73Z"/>
            <path class="cls-1" d="m469.42,484.77c-.15,0-.3-.04-.43-.12-.23-.15-.38-.41-.38-.68,0-1.38-.3-2.71-.89-3.95l-12.9-27.36c-.58-1.23-1.42-2.31-2.48-3.19-.21-.18-.32-.45-.29-.73.03-.27.21-.51.46-.63l4.32-2.04c4.03-1.9,8.93-.36,11.14,3.51.11.19.22.39.33.62l9.9,20.99c.1.22.18.43.26.63,1.58,4.18-.35,8.93-4.38,10.84l-4.32,2.04c-.11.05-.23.08-.35.08Zm-15.14-35.71c.82.86,1.5,1.83,2,2.9l12.9,27.36c.51,1.08.83,2.22.97,3.39l3.24-1.53c3.27-1.55,4.84-5.41,3.56-8.79-.07-.18-.14-.36-.21-.52l-9.91-21s0,0,0,0c-.08-.17-.17-.33-.26-.49-1.8-3.14-5.77-4.39-9.05-2.85l-3.24,1.53Z"/>
            <path class="cls-1" d="m416.89,514.99c-4.12,0-8.08-2.33-9.95-6.3l-12.91-27.36c-2.58-5.47-.23-12.03,5.25-14.62l42.39-19.99c3.84-1.81,8.43-1.22,11.71,1.5,1.25,1.04,2.23,2.3,2.91,3.75h0s12.9,27.36,12.9,27.36c.68,1.45,1.03,3.01,1.04,4.63.02,4.25-2.45,8.17-6.28,9.99l-42.39,19.99c-1.51.71-3.1,1.05-4.67,1.05Zm29.44-67.69c-1.35,0-2.71.29-3.97.88l-42.39,19.99c-4.67,2.2-6.67,7.8-4.47,12.46l12.91,27.36c2.2,4.67,7.79,6.67,12.46,4.47l42.39-19.99c3.27-1.54,5.37-4.89,5.36-8.52,0-1.38-.3-2.71-.89-3.95l-12.9-27.36c-.58-1.23-1.42-2.31-2.48-3.19-1.71-1.43-3.86-2.17-6.01-2.17Z"/>
          </g>
          <path class="cls-1" d="m410.42,491.14c-.3,0-.59-.17-.73-.46l-10.79-22.88c-.19-.4-.02-.89.39-1.08.41-.19.89-.02,1.08.39l10.79,22.88c.19.4.02.89-.39,1.08-.11.05-.23.08-.35.08Z"/>
          <path class="cls-1" d="m416.04,488.49c-.3,0-.6-.17-.73-.46l-10.79-22.88c-.19-.4-.02-.89.39-1.08.41-.19.89-.02,1.08.39l10.79,22.88c.19.4.02.89-.39,1.08-.11.05-.23.08-.35.08Z"/>
          <path class="cls-1" d="m421.66,485.84c-.3,0-.59-.17-.73-.46l-10.79-22.88c-.19-.4-.02-.89.39-1.08.41-.19.89-.02,1.08.39l10.79,22.88c.19.4.02.89-.39,1.08-.11.05-.23.08-.35.08Z"/>
          <path class="cls-1" d="m427.28,483.19c-.3,0-.6-.17-.73-.46l-10.79-22.88c-.19-.4-.02-.89.39-1.08.41-.19.89-.02,1.08.39l10.79,22.88c.19.4.02.89-.39,1.08-.11.05-.23.08-.35.08Z"/>
          <path class="cls-1" d="m453.05,498.55c-.3,0-.59-.17-.73-.46l-4.49-9.52c-.19-.4-.02-.89.39-1.08.41-.19.89-.02,1.08.39l4.49,9.52c.19.4.02.89-.39,1.08-.11.05-.23.08-.35.08Z"/>
          <path class="cls-1" d="m457.59,496.41c-.3,0-.6-.17-.73-.46l-4.49-9.52c-.19-.4-.02-.89.39-1.08s.89-.02,1.08.39l4.49,9.52c.19.4.02.89-.39,1.08-.11.05-.23.08-.35.08Z"/>
          <path class="cls-1" d="m461.81,494.41c-.3,0-.59-.17-.73-.46l-4.49-9.52c-.19-.4-.02-.89.39-1.08s.89-.02,1.08.39l4.49,9.52c.19.4.02.89-.39,1.08-.11.05-.23.08-.35.08Z"/>
          <g>
            <path class="cls-1" d="m419.89,508.82c-.3,0-.58-.16-.73-.45-.2-.4-.04-.89.36-1.09l1.74-.86c.4-.2.89-.04,1.09.36.2.4.04.89-.36,1.09l-1.74.86c-.12.06-.24.08-.36.08Z"/>
            <path class="cls-1" d="m425.79,505.88c-.3,0-.58-.16-.73-.45-.2-.4-.04-.89.36-1.09l8.89-4.42c.4-.2.89-.04,1.09.36.2.4.04.89-.36,1.09l-8.89,4.42c-.12.06-.24.08-.36.08Z"/>
          </g>
        </g>
        <g>
          <path class="cls-1" d="m471.35,266.29h-49.85c-.42,0-.77-.32-.81-.74l-5.93-65.78c-.02-.23.06-.45.21-.62s.37-.26.6-.26h61.71c.23,0,.44.1.6.26s.23.39.21.62l-5.93,65.78c-.04.42-.39.74-.81.74Zm-49.11-1.62h48.36l5.79-64.16h-59.94l5.79,64.16Z"/>
          <path class="cls-1" d="m457.06,232.59c-1.01,0-2.25-.34-3.68-1.37-4.69-3.34-2.21-7.61-.21-11.05,1.07-1.84,2.08-3.58,2.11-5.06.03-1.64-.87-4.49-2.41-5.42-.73-.44-1.55-.4-2.49.11-.43.23-.9.86-1.35,1.46-.81,1.07-1.72,2.28-3.11,2.38-.92.07-1.84-.37-2.82-1.33l-.14-.14c-1.09-1.08-2.08-1.96-3.22-1.66-2.24.6-3.32,2.41-4.46,4.32-1.69,2.84-3.6,6.07-9.62,3.83-5.16-1.92-7.49-7.43-9.03-11.07-1.03-2.45-1.46-4.89-1.39-7.91.01-.44.37-.79.81-.79h61.24c.23,0,.45.1.6.27.15.17.23.4.2.63l-.44,4.16c-.01.13-.06.25-.13.36l-.09.13c-.08.12-.16.25-.24.37-.88,1.35-2.3,2.2-3.68,3.03-1.35.81-2.63,1.57-3.14,2.67-.12.27-.24.52-.35.76-1,2.2-1.61,3.53-4.81,4.94-1.46.64-2.23,1.62-2.59,3.26-.25,1.14-.19,2.44-.12,3.69.03.65.07,1.33.06,1.98-.04,2.6-1.28,5.85-3.58,7.01-.5.25-1.14.46-1.92.46Zm-5.26-24.82c.79,0,1.43.25,1.91.54,2.23,1.35,3.22,4.88,3.19,6.84-.03,1.9-1.2,3.91-2.33,5.85-2.32,4-3.5,6.6-.25,8.91,1.51,1.08,2.84,1.34,3.93.79,1.71-.86,2.66-3.52,2.69-5.59,0-.6-.02-1.22-.05-1.87-.07-1.36-.14-2.76.16-4.12.47-2.14,1.59-3.54,3.52-4.39,2.64-1.16,3.03-2.03,3.99-4.13.11-.24.23-.5.35-.77.72-1.55,2.28-2.48,3.78-3.38,1.28-.76,2.48-1.48,3.15-2.51.07-.12.15-.23.23-.35l.32-3.07h-59.54c.02,2.43.42,4.44,1.27,6.45,0,0,0,0,0,0,1.43,3.39,3.59,8.5,8.1,10.18,4.75,1.77,5.97-.29,7.66-3.14,1.2-2.01,2.55-4.3,5.44-5.06,2.12-.57,3.79,1.09,4.78,2.07l.14.14c.61.6,1.14.89,1.56.86.66-.05,1.31-.91,1.93-1.74.56-.74,1.13-1.5,1.87-1.9.82-.45,1.56-.62,2.2-.62Z"/>
          <path class="cls-1" d="m479.15,200.51h-65.44c-.95,0-1.66-1-1.66-2.31s.71-2.31,1.66-2.31h65.44c.94,0,1.66,1,1.66,2.31s-.71,2.31-1.66,2.31Zm-65.32-1.62h65.2c.06-.1.16-.34.16-.69s-.1-.59-.16-.69h-65.2c-.06.1-.16.34-.16.69s.1.59.16.69Z"/>
          <path class="cls-1" d="m459.7,258.04h-4.54c-.45,0-.81-.36-.81-.81s.36-.81.81-.81h4.54c10.11,0,18.34-8.23,18.34-18.34v-31.13h-1.34c-.45,0-.81-.36-.81-.81s.36-.81.81-.81h2.15c.45,0,.81.36.81.81v31.94c0,11-8.95,19.96-19.96,19.96Z"/>
          <path class="cls-1" d="m437.69,258.04h-4.55c-11,0-19.96-8.95-19.96-19.96v-31.94c0-.45.36-.81.81-.81h2.15c.45,0,.81.36.81.81s-.36.81-.81.81h-1.34v31.13c0,10.11,8.23,18.34,18.34,18.34h4.55c.45,0,.81.36.81.81s-.36.81-.81.81Z"/>
          <path class="cls-1" d="m455.16,260.7h-17.46c-.45,0-.81-.36-.81-.81v-5.08c0-.45.36-.81.81-.81h17.46c.45,0,.81.36.81.81v5.08c0,.45-.36.81-.81.81Zm-16.65-1.62h15.84v-3.46h-15.84v3.46Z"/>
          <path class="cls-1" d="m473.5,242.55h-54.14c-.45,0-.81-.36-.81-.81s.36-.81.81-.81h54.14c.45,0,.81.36.81.81s-.36.81-.81.81Z"/>
          <path class="cls-1" d="m473.75,239.84h-54.63c-.45,0-.81-.36-.81-.81s.36-.81.81-.81h54.63c.45,0,.81.36.81.81s-.36.81-.81.81Z"/>
          <path class="cls-1" d="m474.01,236.45h-55.2c-.45,0-.81-.36-.81-.81s.36-.81.81-.81h55.2c.45,0,.81.36.81.81s-.36.81-.81.81Z"/>
          <g>
            <path class="cls-1" d="m421.99,233.68c-.42,0-.77-.32-.81-.75l-.09-1.14c-.04-.45.3-.84.74-.87.44-.04.84.3.87.74l.09,1.14c.04.45-.3.84-.74.87-.02,0-.04,0-.07,0Z"/>
            <path class="cls-1" d="m421.68,229.79c-.42,0-.77-.32-.81-.75l-.47-5.85c-.04-.45.3-.84.74-.87.44-.04.84.3.87.74l.47,5.85c.04.45-.3.84-.74.87-.02,0-.04,0-.07,0Z"/>
          </g>
        </g>
        <g>
          <path class="cls-1" d="m299.78,67.48c-.23,0-.45-.1-.61-.27-.18-.2-.24-.47-.18-.73l1.14-4.61c.09-.35.4-.6.76-.61.37-.01.69.22.8.56l1.37,4.31c.07.23.04.48-.09.68-.13.2-.35.34-.59.37l-2.51.3s-.06,0-.09,0Zm1.24-2.44l-.17.69.38-.04-.21-.65Z"/>
          <path class="cls-1" d="m272.4,177.8h-9.79c-.25,0-.48-.11-.64-.31s-.21-.45-.15-.69l13.2-53.02c.08-.34.38-.59.72-.61l2.47-.19,1.32-4.65-2.15.14c-.26.02-.51-.09-.67-.29s-.23-.46-.17-.71l4.82-19.56c.09-.36.41-.61.78-.62.36,0,.7.25.79.61l4.97,19.55c.03.13.03.26,0,.39l-14.73,59.35c-.09.36-.41.61-.79.61Zm-8.75-1.62h8.12l14.53-58.53-4.12-16.22-3.78,15.34,2.19-.14c.26-.02.52.09.68.3.17.2.22.48.15.73l-1.79,6.3c-.09.33-.38.56-.72.59l-2.45.19-12.81,51.45Z"/>
          <path class="cls-1" d="m291.61,97.63c-.37,0-.69-.25-.78-.61l-4.62-18.23c-.03-.13-.03-.26,0-.39l1.04-4.21c.08-.33.36-.57.69-.61l10.12-1.18c.26-.03.53.07.7.27.18.2.24.47.18.73l-5.83,23.53c-.08.33-.36.57-.69.61l-.7.08s-.06,0-.1,0Zm-3.79-19.04l4.12,16.26,5.13-20.71-8.4.98-.86,3.47Z"/>
          <path class="cls-1" d="m289.66,68.13c-.24,0-.47-.11-.62-.29-.17-.2-.23-.46-.16-.72l4.99-19.95c.09-.36.41-.61.79-.61h1.7c.35,0,.67.23.77.57l4.57,14.54c.04.14.05.29.01.43l-1.14,4.77c-.08.35-.38.6-.74.62l-10.12.65s-.03,0-.05,0Zm10.12-1.46h0,0Zm-4.5-18.49l-4.57,18.26,8.42-.54.95-3.97-4.32-13.75h-.47Z"/>
          <path class="cls-1" d="m239.05,184.28h-9.85c-.25,0-.49-.12-.65-.32-.15-.2-.2-.47-.13-.71l38.94-136.1c.1-.35.42-.59.78-.59h1.24c.37,0,.69.25.79.61l4.05,16.06c.03.14.03.28,0,.42l-15.65,54.92-1.76,6.02-16.96,59.1c-.1.35-.42.59-.78.59Zm-8.78-1.62h8.17l16.79-58.52,1.76-6.02,15.59-54.7-3.84-15.23-38.48,134.48Z"/>
          <path class="cls-1" d="m347.41,177.8h-9.92c-.35,0-.67-.23-.77-.56l-6.3-19.77c-.07-.22-.04-.47.08-.67.12-.2.32-.34.56-.38l2.91-.5-1.47-4.61-3.24.38c-.38.05-.75-.19-.87-.56l-7.01-22.04c-.07-.23-.04-.48.09-.69.13-.2.35-.34.59-.37l2.9-.34-1.45-4.56-3.21.37c-.38.05-.75-.19-.87-.56l-7.01-22.03c-.07-.23-.04-.48.09-.69.13-.2.35-.34.59-.37l2.88-.34-1.45-4.56-3.19.37c-.38.05-.75-.19-.87-.56l-7.01-22.04c-.07-.23-.04-.48.09-.69.13-.2.35-.34.59-.36l2.85-.33-1.45-4.56-3.16.36c-.39.04-.75-.19-.87-.57l-1.37-4.47-4.57-14.53c-.08-.25-.03-.51.12-.72.15-.21.4-.33.65-.33h10.29c.45,0,.81.36.81.81v.2l40.73,129.18c.08.25.03.51-.12.72-.15.21-.4.33-.65.33Zm-9.33-1.62h8.23l-40.36-128h-8.49l4.24,13.48,1.18,3.83,3.16-.36c.38-.05.75.19.86.56l1.95,6.13c.07.23.04.48-.09.69-.13.2-.35.34-.59.37l-2.86.33,6.51,20.46,3.19-.37c.38-.05.75.19.87.56l1.95,6.13c.07.23.04.48-.09.69-.13.2-.35.34-.59.37l-2.88.34,6.51,20.46,3.21-.37c.38-.05.75.19.87.56l1.96,6.13c.07.23.04.48-.09.69s-.35.34-.59.37l-2.9.34,6.51,20.47,3.24-.38c.38-.05.75.19.87.56l1.95,6.13c.07.22.04.47-.08.67-.12.2-.32.34-.56.38l-2.91.5,5.83,18.32Z"/>
          <path class="cls-1" d="m293.18,103.81c-.37,0-.69-.25-.78-.61l-1.57-6.18c-.06-.23-.01-.47.12-.66.13-.19.34-.32.57-.35l.7-.08,22.78-2.64c.38-.05.75.19.87.56l1.95,6.13c.07.23.04.48-.09.69-.13.2-.35.34-.59.37l-23.87,2.78s-.06,0-.09,0Zm-.55-6.29l1.16,4.6,22.19-2.58-1.45-4.56-21.9,2.54Z"/>
          <path class="cls-1" d="m300.38,132.18c-.37,0-.69-.25-.78-.61l-1.57-6.18c-.06-.23-.01-.47.12-.66.13-.19.34-.32.57-.34l25.27-2.93c.38-.05.75.19.87.56l1.96,6.13c.07.23.04.48-.09.69s-.35.34-.59.37l-25.66,2.98s-.06,0-.09,0Zm-.55-6.29l1.16,4.6,23.97-2.79-1.45-4.56-23.68,2.75Z"/>
          <path class="cls-1" d="m307.57,160.55c-.37,0-.69-.25-.78-.61l-1.57-6.18c-.06-.23-.01-.47.12-.66.13-.19.34-.32.57-.35l27.05-3.14c.38-.05.75.19.87.56l1.95,6.13c.07.23.04.48-.09.69-.13.2-.35.34-.59.37l-3.9.45-23.54,2.74s-.06,0-.09,0Zm-.55-6.29l1.17,4.6,25.76-2.99-1.45-4.56-3.24.38-22.23,2.58Z"/>
          <path class="cls-1" d="m313.75,184.28h-9.78c-.37,0-.69-.25-.78-.61l-16.84-66.11-4.96-19.25s0,0,0,0l-8.73-34.6-4.05-16.14c-.06-.24,0-.5.15-.7s.39-.31.64-.31h9.78c.37,0,.7.25.79.61l5.26,20.92,1.57,6.35,20.02,78.85,1.57,6.1,5.75,22.53.41,1.31c.08.25.03.51-.12.72-.15.21-.4.33-.65.33Zm-9.15-1.62h8.04l-.09-.28s0-.03-.01-.04l-5.76-22.55-1.57-6.1-7.19-28.31-12.82-50.55-1.57-6.35-5.11-20.31h-8.11l3.8,15.13,8.73,34.6,4.97,19.26,16.69,65.5Z"/>
          <path class="cls-1" d="m306.64,48.49c-.26,0-.5-.13-.65-.32h-33.38c-.45,0-.81-.36-.81-.81v-3.24c0-.45.36-.81.81-.81h34.03c.45,0,.81.36.81.81v3.56c0,.45-.36.81-.81.81Zm-33.22-1.94h32.41v-1.62h-32.41v1.62Z"/>
          <path class="cls-1" d="m272.61,51.41h-6.48c-.45,0-.81-.36-.81-.81v-8.1c0-.45.36-.81.81-.81h6.48c.45,0,.81.36.81.81v8.1c0,.45-.36.81-.81.81Zm-5.67-1.62h4.86v-6.48h-4.86v6.48Z"/>
          <g>
            <path class="cls-1" d="m247.89,136.92c-.07,0-.14,0-.21-.03-.43-.12-.69-.56-.57-.99l.52-1.92c.12-.43.56-.69.99-.57.43.12.69.56.57.99l-.52,1.92c-.1.36-.42.6-.78.6Z"/>
            <path class="cls-1" d="m249.66,130.4c-.07,0-.14,0-.21-.03-.43-.12-.69-.56-.57-.99l2.66-9.81c.12-.43.56-.69.99-.57.43.12.69.56.57.99l-2.66,9.81c-.1.36-.42.6-.78.6Z"/>
          </g>
          <path class="cls-1" d="m256.01,125.48c-.25,0-.48-.11-.64-.31-.16-.2-.22-.47-.14-.73l1.76-6.17c.1-.33.39-.57.74-.59l22.86-1.06c.26-.01.51.1.67.31.16.21.21.48.14.73l-1.79,6.17c-.1.33-.39.57-.74.58l-3.03.14-19.8.92s-.03,0-.04,0Zm2.38-6.2l-1.29,4.53,21.13-.98,1.31-4.53-2.16.1-18.98.89Z"/>
          <path class="cls-1" d="m285.99,75.44c-.37,0-.69-.25-.78-.61l-1.57-6.18c-.06-.23-.01-.47.12-.66.13-.19.34-.32.57-.35l21.7-2.52c.38-.05.75.19.86.56l1.95,6.13c.07.23.04.48-.09.69-.13.2-.35.34-.59.37l-22.08,2.57s-.06,0-.1,0Zm-.55-6.29l1.16,4.59,1.34-.16,10.12-1.18s0,0,0,0l8.94-1.03-1.45-4.56-20.12,2.34Z"/>
        </g>
        <g>
          <g>
            <g>
              <path class="cls-1" d="m366.3,165.35c-1,0-2-.21-2.95-.63-.02,0-.04-.01-.06-.02l-3.72-1.75c-2.04-.94-3.55-2.82-4.04-5.03-.36-1.65-.15-3.41.6-4.94l25.63-52.29c.1-.21.28-.36.5-.42.21-.06.43-.03.62.07l12.12,5.48c.2.09.38.17.57.24.2.08.36.24.45.44.08.2.08.43,0,.63l-22.93,53.66c-.67,1.57-1.86,2.88-3.34,3.68-1.09.59-2.28.88-3.47.88Zm-2.3-2.12c1.61.72,3.43.65,4.99-.19,1.16-.63,2.1-1.66,2.63-2.89l22.61-52.91-11.35-5.13-25.28,51.58c-.59,1.21-.76,2.59-.48,3.88.38,1.72,1.55,3.18,3.14,3.91l3.7,1.74s.02.01.04.02h0Zm18.93-62.88s0,0,0,0c0,0,0,0,0,0Zm-.15-.06s0,0,0,0c0,0,0,0,0,0Zm-18.41,59.84c-.41,0-.83-.09-1.24-.28-.98-.44-1.59-1.27-1.69-2.29-.11-1.11.4-2.24,1.3-2.89.83-.59,1.86-.68,2.84-.24.98.44,1.59,1.27,1.69,2.29.11,1.11-.4,2.24-1.31,2.89-.48.34-1.03.52-1.59.52Zm-.04-4.35c-.23,0-.45.07-.65.22-.43.31-.69.89-.64,1.41.04.44.3.77.75.97,0,0,0,0,0,0,.45.21.86.18,1.22-.08.43-.31.69-.89.64-1.41-.04-.44-.3-.77-.75-.97-.2-.09-.39-.14-.58-.14Z"/>
              <path class="cls-1" d="m400.36,108.59c-1.79,0-3.6-.33-5.36-1.03-.22-.09-.43-.17-.65-.27l-12.12-5.48s-.08-.04-.11-.05c-7.24-3.33-10.45-11.92-7.17-19.19l6.03-13.34c2.4-5.3,7.13-7.62,14.06-6.88.28.03.53.2.65.46s.1.55-.05.79c-.21.31-.37.62-.51.93l-7.51,16.61c-1.51,3.33-.02,7.27,3.31,8.78l6.59,2.97c3.33,1.51,7.27.02,8.78-3.31l7.51-16.61c.15-.33.27-.66.36-1,.08-.27.29-.49.56-.56.27-.08.56,0,.77.18,5.13,4.72,6.52,9.8,4.13,15.1l-6.03,13.34c-2.42,5.36-7.69,8.56-13.23,8.56Zm-17.46-8.26l12.12,5.48c.2.09.38.17.57.24,6.41,2.54,13.67-.39,16.52-6.69l6.03-13.34c1.96-4.34,1.03-8.4-2.86-12.38l-7.51,16.61c-1.87,4.14-6.77,5.99-10.92,4.12l-6.59-2.97c-4.15-1.88-5.99-6.78-4.12-10.92l7.51-16.61s0,0,0,0c-5.56-.3-9.23,1.68-11.19,6.03l-6.03,13.34c-2.92,6.47-.05,14.12,6.41,17.07.02,0,.04.02.06.03Zm.03.02s0,0,0,0c0,0,0,0,0,0Zm-.15-.06s0,0,0,0c0,0,0,0,0,0Z"/>
            </g>
            <path class="cls-1" d="m370.18,148.69c-.33,0-.66-.07-.97-.21,0,0-.02,0-.02-.01,0,0,0,0,0,0l-1.3-.62c-.91-.42-1.48-1.44-1.51-2.73-.02-.85.19-1.8.6-2.66l13.73-28.81c.96-2.01,2.78-3.03,4.24-2.38,0,0,.02,0,.03.01h0s.68.33.68.33c1.42.66,1.85,2.76.97,4.77l-12.76,29.26c-.38.88-.95,1.66-1.61,2.2-.68.56-1.4.84-2.09.84Zm-.29-1.68c.35.15.85,0,1.35-.41.46-.38.87-.95,1.15-1.59l12.76-29.27c.54-1.23.35-2.42-.18-2.66l-.68-.33c-.53-.23-1.52.36-2.11,1.6l-13.73,28.81c-.31.64-.46,1.32-.45,1.93.02.65.24,1.15.58,1.3l1.31.63Z"/>
          </g>
          <g>
            <path class="cls-1" d="m381.22,80.8c-.12,0-.23-.02-.34-.08-.4-.19-.58-.67-.39-1.08l.52-1.1c.19-.4.67-.58,1.08-.39.4.19.58.67.39,1.08l-.52,1.1c-.14.29-.43.46-.73.46Z"/>
            <path class="cls-1" d="m382.98,77.08c-.12,0-.23-.03-.35-.08-.4-.19-.58-.67-.39-1.08l2.64-5.6c.19-.4.67-.58,1.08-.39.4.19.58.67.39,1.08l-2.64,5.6c-.14.29-.43.46-.73.46Z"/>
          </g>
        </g>
        <g>
          <path class="cls-1" d="m525.45,224.08c-.51,0-1.03-.06-1.54-.18-1.76-.41-3.26-1.48-4.22-3.01l-22.53-36.07c-.11-.18-.15-.4-.1-.61.05-.21.18-.39.36-.5l17.77-11.09c.38-.24.88-.12,1.12.26l22.53,36.07c1.98,3.17,1.01,7.35-2.16,9.33l-7.66,4.78c-1.09.68-2.32,1.03-3.57,1.03Zm-26.48-39.43l22.1,35.38c.73,1.17,1.87,1.98,3.21,2.29,1.34.31,2.72.08,3.89-.65l7.66-4.78c2.41-1.5,3.14-4.69,1.64-7.09l-22.1-35.39-16.39,10.23Z"/>
          <path class="cls-1" d="m495.6,185.99c-1.44,0-2.85-.72-3.66-2.02l-2.3-3.69c-.24-.38-.12-.88.26-1.12l24.53-15.31c.38-.24.88-.12,1.12.26l2.3,3.69c1.26,2.01.64,4.68-1.37,5.94l-18.59,11.61c-.71.44-1.5.65-2.27.65Zm-4.16-5.89l1.87,3c.78,1.26,2.45,1.64,3.71.86l18.59-11.61c1.26-.79,1.64-2.45.86-3.7l-1.87-3-23.15,14.46Z"/>
          <path class="cls-1" d="m521.51,214.55c-.23,0-.46-.03-.7-.08-.8-.18-1.48-.67-1.91-1.36l-15.25-24.43c-.43-.7-.57-1.52-.39-2.32.18-.8.67-1.48,1.37-1.91.7-.44,1.52-.57,2.32-.39.8.18,1.48.67,1.91,1.37l15.25,24.43c.43.7.57,1.52.39,2.32-.19.8-.67,1.48-1.37,1.91-.49.31-1.05.47-1.62.47Zm-15.26-28.95c-.27,0-.53.08-.77.22-.33.21-.56.52-.65.9-.09.38-.02.77.18,1.09,0,0,0,0,0,0l15.25,24.43c.21.33.53.56.9.64.38.09.76.02,1.09-.18.33-.21.56-.52.65-.9.09-.38.02-.77-.18-1.1l-15.25-24.43c-.21-.33-.53-.56-.9-.65-.11-.03-.22-.04-.33-.04Z"/>
          <path class="cls-1" d="m500.67,174.19c-.27,0-.53-.13-.69-.38l-27.23-43.61c-2.31.13-4.53-1.01-5.77-2.99l-5.62-9.01c-.24-.38-.12-.88.26-1.12l9.44-5.9c.18-.11.4-.15.61-.1.21.05.39.18.5.36l5.63,9.01c1.24,1.98,1.28,4.47.15,6.49l27.23,43.61c.11.18.15.4.1.61-.05.21-.18.39-.36.5l-3.83,2.39c-.13.08-.28.12-.43.12Zm-27.5-45.65c.28,0,.54.14.69.38l27.07,43.35,2.46-1.53-27.07-43.35c-.17-.27-.16-.62.02-.88,1.05-1.56,1.09-3.59.1-5.18l-5.2-8.32-8.07,5.04,5.19,8.32c.99,1.59,2.84,2.45,4.7,2.19.04,0,.08,0,.11,0Z"/>
          <path class="cls-1" d="m529.54,209.54c-.23,0-.46-.03-.7-.08-.8-.18-1.48-.67-1.91-1.36l-15.25-24.43s0,0,0,0c-.9-1.44-.46-3.33.98-4.23,1.44-.9,3.33-.46,4.23.98l15.25,24.43c.89,1.43.46,3.33-.98,4.23-.49.31-1.05.47-1.62.47Zm-16.49-26.73l15.25,24.43c.21.33.53.56.9.64.38.09.76.02,1.09-.18.68-.42.89-1.32.46-2l-15.25-24.43c-.42-.68-1.32-.89-2-.46-.68.42-.88,1.32-.46,2h0Z"/>
          <g>
            <path class="cls-1" d="m503.46,176.32c-.27,0-.53-.14-.69-.38-.24-.38-.12-.88.26-1.12l1.14-.71c.38-.24.88-.12,1.12.26s.12.88-.26,1.12l-1.14.71c-.13.08-.28.12-.43.12Z"/>
            <path class="cls-1" d="m507.33,173.91c-.27,0-.53-.14-.69-.38-.24-.38-.12-.88.26-1.12l5.82-3.63c.38-.24.88-.12,1.12.26.24.38.12.88-.26,1.12l-5.82,3.63c-.13.08-.28.12-.43.12Z"/>
          </g>
        </g>
        <g>
          <path class="cls-1" d="m206.04,435.19c-2.11,0-4.2-.91-5.63-2.67-5.06-5.25-19.14-18.6-23.83-17.79h0c-.61.11-.99-.2-1.14-.53-.32-.7-.73-1.57,13.17-14.32,8.44-7.74,19.25-17.16,29.67-25.83,10.7-8.9,20.09-16.29,27.16-21.36,4-2.87,7.26-5,9.69-6.32,3.06-1.67,4.78-2.09,5.75-1.4.74.53.85,1.51.33,2.94-5.96,16.12,2.49,44.38,2.58,44.66,0,.02.01.05.02.07,1.08,5.25.06,8.8-3.31,11.52-.03.02-.06.05-.1.07l-49.85,29.37c-1.33,1.05-2.92,1.57-4.5,1.57Zm-28.58-22.07c7.07.8,22.33,16.42,24.14,18.3.02.02.03.03.05.05,1.95,2.42,5.5,2.79,7.92.85.03-.03.06-.05.1-.07l49.85-29.37c2.01-1.64,3.88-4.1,2.7-9.86-.49-1.62-8.63-29.18-2.54-45.66.24-.66.24-.96.22-1.06-.14-.03-.64-.05-1.95.5-14.37,6.05-74.24,58.32-80.5,66.32Zm-1.16.02s0,0,0,0l.14.8-.14-.8Z"/>
          <path class="cls-1" d="m159.95,455.63c-.35,0-.67-.23-.78-.58l-1.32-4.37c-.12-.41.09-.84.49-.99l17.28-6.62s.03-.01.05-.02l119.05-37.11c.21-.06.43-.04.62.06.19.1.33.27.4.48l2.1,6.96c.13.43-.11.88-.53,1.01l-119.06,37.11s-.04.01-.06.02l-18.05,4.02c-.06.01-.12.02-.18.02Zm-.32-4.69l.88,2.93,17.28-3.85,118.26-36.87-1.63-5.41-118.24,36.86-16.55,6.34Z"/>
          <path class="cls-1" d="m290.49,408.87c-.18,0-.35-.06-.5-.18l-29.38-23.32c-.35-.28-.41-.79-.13-1.14.28-.35.79-.41,1.14-.13l29.38,23.32c.35.28.41.79.13,1.14-.16.2-.4.31-.64.31Z"/>
          <path class="cls-1" d="m210.08,433.76c-.31,0-.61-.18-.74-.48-.17-.38-.02-.82.33-1.03l46.69-27.28c.35-.2.79-.12,1.04.19l8.22,10.19c.17.21.22.49.14.74s-.28.46-.53.54l-54.91,17.09c-.08.02-.16.04-.24.04Zm46.5-27.04l-39.95,23.34,46.99-14.62-7.03-8.72Z"/>
          <path class="cls-1" d="m244.77,468.54c-.19,0-.38-.07-.53-.2l-31.13-27c-.34-.29-.37-.8-.08-1.14.29-.34.8-.37,1.14-.08l29.44,25.53-5.4-33.14c-.07-.44.23-.86.67-.93.44-.07.86.23.93.67l5.76,35.35c.05.34-.11.67-.4.84-.12.07-.26.1-.39.1Z"/>
          <g>
            <path class="cls-1" d="m193.88,407.9c-.22,0-.45-.09-.61-.27-.3-.34-.26-.85.07-1.14l1.54-1.36c.34-.3.85-.26,1.14.07s.26.85-.07,1.14l-1.54,1.36c-.15.14-.35.2-.54.2Z"/>
            <path class="cls-1" d="m199.12,403.26c-.22,0-.45-.09-.61-.27-.3-.34-.26-.85.07-1.14l7.9-6.98c.34-.3.85-.26,1.14.07.3.34.26.85-.07,1.14l-7.9,6.98c-.15.14-.35.2-.54.2Z"/>
          </g>
          <path class="cls-1" d="m293.5,429.89c-5.3,0-10.55-2.3-14.13-6.74-.79-.98-1.48-2.04-2.05-3.17-.11-.21-.12-.46-.03-.68s.28-.39.51-.46l8.66-2.7c.33-.1.68.01.89.28.03.04.05.07.08.11.02.02.03.05.05.07,2.68,3.32,7.55,3.84,10.86,1.17,1.6-1.29,2.61-3.14,2.83-5.19.22-2.05-.37-4.06-1.67-5.67-2.67-3.31-7.54-3.83-10.85-1.16-1.33,1.07-2.24,2.52-2.64,4.19-.07.28-.27.5-.55.58l-9.02,2.81c-.24.07-.5.03-.71-.11s-.33-.38-.34-.63c-.26-5.75,2.25-11.34,6.72-14.95,0,0,0,0,0,0,7.78-6.28,19.22-5.05,25.49,2.73,6.28,7.78,5.06,19.22-2.73,25.5-3.35,2.7-7.37,4.01-11.37,4.01Zm-14.28-9.8c.42.72.89,1.4,1.41,2.04,5.72,7.09,16.13,8.2,23.22,2.48,7.09-5.72,8.2-16.13,2.48-23.22-5.72-7.08-16.13-8.2-23.22-2.48-3.8,3.07-6.05,7.7-6.14,12.56l7.56-2.35c.53-1.83,1.59-3.42,3.08-4.62,4.01-3.23,9.9-2.6,13.13,1.4,1.57,1.94,2.28,4.38,2.02,6.86-.26,2.48-1.48,4.71-3.42,6.27-3.93,3.17-9.67,2.62-12.94-1.18l-7.18,2.24Z"/>
        </g>
        <g>
          <g>
            <path class="cls-1" d="m199.41,556.49c-.22,0-.43-.09-.59-.25-.24-.25-.29-.64-.13-.94,1.28-2.37,1.31-5.21.08-7.6-.02-.04-.04-.08-.05-.11-.07-.22-1.74-5.39.85-12.59,2.35-6.55,8.84-16.12,26.42-24.45.24-.11.52-.1.75.03.23.13.38.37.41.63,1.67,17.77-8.99,35.76-26.5,44.77l-.2.1c-.23.12-.46.23-.69.34-.11.05-.23.08-.35.08Zm.84-9.47c1.1,2.17,1.33,4.65.71,6.95,15.93-8.67,25.69-25.08,24.67-41.45-16.28,7.97-22.33,16.88-24.53,23.02-2.26,6.32-1.01,10.95-.85,11.48Z"/>
            <path class="cls-1" d="m186.1,494.34c-2.82,0-5.46-.29-7.92-.87-7.15-1.69-9.94-5.28-10.06-5.44-.03-.04-.05-.08-.08-.12-1.23-2.39-3.56-4.02-6.23-4.36-.35-.04-.63-.31-.69-.65-.07-.34.1-.69.41-.86.21-.11.42-.22.63-.33l.24-.13c17.53-9.01,38.36-7.19,51.84,4.51.21.18.31.46.27.74-.04.28-.22.51-.48.62-10.63,4.59-19.99,6.9-27.93,6.9Zm-16.65-7.24c.34.41,3.04,3.4,9.27,4.83,6.06,1.39,16.74,1.54,33.46-5.46-12.72-10.29-31.68-11.87-47.96-3.99,2.23.83,4.11,2.46,5.24,4.61Z"/>
            <path class="cls-1" d="m192.3,569.54c-.3,0-.58-.17-.72-.44l-45.12-87.8c-.17-.32-.1-.72.17-.96.39-.37.82-.67,1.25-.89,2.66-1.37,6.34-.44,10.67,2.69,1.14-.27,2.31-.34,3.48-.19,3.17.4,5.94,2.32,7.42,5.15.37.42,3.2,3.5,9.49,4.97,6.27,1.47,17.33,1.6,34.44-6.1,2.32-1.04,4.62,1.46,5.89,3.92l7.72,15.03c.41.8,1.7,3.56,1.03,5.56-.23.7-.69,1.23-1.33,1.53-16.96,8.15-23.24,17.27-25.52,23.48-2.32,6.32-1.08,11-.92,11.53,1.44,2.85,1.39,6.23-.13,9.05-.55,1.03-1.28,1.94-2.18,2.72.01,5.34-1.37,8.88-4.03,10.24-.44.22-.93.39-1.46.5-.05.01-.11.02-.16.02Zm-44.1-88.4l44.52,86.63c.16-.06.31-.12.46-.19,2.18-1.12,3.27-4.4,3.14-9.48,0-.38.24-.71.61-.81.09-.02.18-.03.27-.02.6-.58,1.1-1.24,1.5-1.98,1.28-2.37,1.31-5.21.08-7.6-.02-.04-.04-.08-.05-.12-.07-.21-1.71-5.34.88-12.53,2.36-6.53,8.85-16.09,26.38-24.51.24-.12.4-.3.5-.59.35-1.04-.22-2.91-.94-4.3l-7.72-15.03c-.82-1.59-2.5-3.75-3.78-3.18-17.62,7.93-29.11,7.73-35.63,6.16-7.21-1.73-10.15-5.4-10.28-5.55-.03-.04-.06-.08-.08-.13-1.23-2.39-3.56-4.02-6.23-4.36-.83-.11-1.67-.08-2.48.07-.05.08-.11.15-.18.21-.29.24-.71.25-1.01.03-4.06-3.06-7.36-4.09-9.54-2.97-.14.07-.28.16-.42.26Z"/>
            <path class="cls-1" d="m192.3,569.54c-.3,0-.58-.17-.72-.44l-45.12-87.8c-.17-.32-.1-.72.17-.96.39-.37.82-.67,1.25-.89,2.92-1.5,7.35-.26,11.3,3.15.04.04.08.08.12.13,24.96,33.45,38.47,74.69,38.6,75.1.02.07.04.15.04.23.14,5.75-1.25,9.54-4.02,10.97-.44.22-.93.39-1.46.5-.05.01-.11.02-.16.02Zm-44.1-88.4l44.52,86.63c.16-.06.31-.12.46-.19,2.16-1.11,3.25-4.35,3.14-9.37-.79-2.39-14.14-42.09-38.27-74.45-3.37-2.89-7.15-4.05-9.43-2.88-.14.07-.28.16-.42.26Z"/>
          </g>
          <path class="cls-1" d="m204.09,512.76c-.16,0-.33-.05-.47-.15-.36-.26-.45-.77-.19-1.13,2.18-3.06,9.57-5.69,12.21-6.55l-3.01-5.85c-2.11,1.5-8.04,5.48-12.29,6.12-.44.06-.86-.24-.92-.68-.07-.44.24-.86.68-.92,4.74-.71,12.26-6.32,12.34-6.38.19-.14.43-.2.67-.14.23.05.43.21.54.42l3.88,7.54c.11.21.12.47.02.69-.09.22-.28.39-.51.46-2.77.83-10.38,3.57-12.28,6.23-.16.22-.41.34-.66.34Z"/>
          <g>
            <path class="cls-1" d="m154.21,486.77c-.29,0-.58-.16-.72-.44l-.64-1.22c-.21-.4-.05-.89.35-1.09.4-.21.89-.05,1.09.35l.64,1.22c.21.4.05.89-.35,1.09-.12.06-.25.09-.37.09Z"/>
            <path class="cls-1" d="m158.98,495.95c-.29,0-.58-.16-.72-.44l-3.25-6.25c-.21-.4-.05-.89.35-1.09.4-.21.89-.05,1.09.35l3.25,6.25c.21.4.05.89-.35,1.09-.12.06-.25.09-.37.09Z"/>
          </g>
        </g>
        <g>
          <path class="cls-1" d="m508.85,392.22c-1.4,0-2.8-.26-4.14-.77l-13.22-5.06c-2.89-1.1-5.17-3.26-6.43-6.08-1.26-2.82-1.35-5.96-.24-8.85l3.9-10.21c1.1-2.88,3.26-5.17,6.08-6.43,2.82-1.26,5.96-1.35,8.85-.24l13.22,5.06c5.96,2.28,8.95,8.98,6.67,14.93l-3.9,10.21h0c-1.1,2.89-3.26,5.17-6.09,6.43-1.51.67-3.11,1.01-4.71,1.01Zm-9.33-36.78c-1.38,0-2.75.29-4.05.87-2.43,1.08-4.28,3.05-5.23,5.53l-3.9,10.21c-.95,2.48-.88,5.18.21,7.61,1.08,2.42,3.05,4.28,5.53,5.23l13.22,5.06c2.48.95,5.18.88,7.61-.21,2.43-1.08,4.28-3.05,5.23-5.53l3.9-10.21c1.96-5.12-.61-10.88-5.74-12.84l-13.22-5.06c-1.15-.44-2.36-.66-3.56-.66Zm19.37,29.06h0,0Z"/>
          <path class="cls-1" d="m514.96,360.58c-.1,0-.19-.02-.29-.05l-9.98-3.81c-.2-.08-.36-.23-.45-.43-.09-.2-.09-.42-.02-.62l3.06-8c.16-.42.63-.63,1.05-.47l9.98,3.81c.2.08.36.23.45.43.09.2.09.42.02.62l-3.06,8c-.12.32-.43.52-.76.52Zm-8.93-5.09l8.46,3.24,2.48-6.49-8.46-3.24-2.48,6.49Z"/>
          <path class="cls-1" d="m520.85,353.66c-.1,0-.19-.02-.29-.05l-15.63-5.98c-.2-.08-.36-.23-.45-.43-.09-.2-.09-.42-.02-.62l1.26-3.31c.16-.42.63-.63,1.05-.47l15.63,5.98c.2.08.36.23.45.43.09.2.09.42.02.62l-1.26,3.31c-.12.32-.43.52-.76.52Zm-14.59-7.26l14.12,5.4.69-1.79-14.12-5.4-.69,1.79Z"/>
          <path class="cls-1" d="m543.06,422.45c-.1,0-.19-.02-.29-.05l-23.15-8.85c-.42-.16-.63-.63-.47-1.05l3.51-9.17c.08-.2.23-.36.43-.45.2-.09.42-.09.62-.02l23.15,8.85c.2.08.36.23.45.43.09.2.09.42.02.62l-3.51,9.17c-.12.32-.43.52-.76.52Zm-22.1-10.13l21.64,8.27,2.93-7.65-21.64-8.27-2.93,7.65Z"/>
          <path class="cls-1" d="m543.06,422.45c-.1,0-.19-.02-.29-.05l-23.15-8.85c-.2-.08-.36-.23-.45-.43-.09-.2-.09-.42-.02-.62l1.75-4.58c.16-.42.63-.63,1.05-.47l23.15,8.85c.2.08.36.23.45.43.09.2.09.42.02.62l-1.75,4.58c-.12.32-.43.52-.76.52Zm-22.1-10.13l21.64,8.27,1.17-3.07-21.64-8.27-1.17,3.07Z"/>
          <path class="cls-1" d="m463.78,373.29c-.1,0-.19-.02-.29-.05l-5.89-2.25c-.2-.08-.36-.23-.45-.43-.09-.2-.09-.42-.02-.62l10.65-27.84c.16-.42.63-.63,1.05-.47l5.89,2.25c.2.08.36.23.45.43.09.2.09.42.02.62l-10.65,27.84c-.12.32-.43.52-.76.52Zm-4.84-3.53l4.38,1.67,10.07-26.33-4.38-1.67-10.07,26.33Z"/>
          <path class="cls-1" d="m519.29,349.27c-.1,0-.2-.02-.29-.05l-9.98-3.82c-.2-.08-.36-.23-.45-.43-.09-.2-.09-.42-.02-.62l3.13-8.17c.14-.37.52-.58.91-.51.38.07.66.41.66.8-.01,2.03,1.25,3.88,3.14,4.61h0c1.89.72,4.07.19,5.41-1.33.26-.29.69-.36,1.03-.16.33.2.48.62.34.98l-3.12,8.17c-.08.2-.23.36-.43.45-.1.05-.22.07-.33.07Zm-8.93-5.09l8.46,3.24,1.88-4.92c-1.53.65-3.29.72-4.89.1-1.6-.61-2.87-1.84-3.57-3.34l-1.88,4.92Z"/>
          <path class="cls-1" d="m518.14,343.04c-.79,0-1.57-.14-2.33-.43-1.63-.62-2.91-1.84-3.62-3.43-.71-1.59-.76-3.36-.14-4.99.62-1.63,1.84-2.92,3.43-3.63,1.59-.71,3.36-.76,4.99-.14,1.63.62,2.91,1.84,3.62,3.43.71,1.59.76,3.36.14,4.99-.62,1.63-1.84,2.91-3.43,3.62-.85.38-1.75.57-2.66.57Zm0-11.42c-.68,0-1.36.14-2,.43-1.2.53-2.11,1.5-2.58,2.72-.47,1.22-.43,2.55.1,3.75.53,1.2,1.5,2.11,2.72,2.58,1.22.47,2.55.43,3.75-.1,1.19-.53,2.11-1.5,2.58-2.72h0c.47-1.22.43-2.55-.1-3.75s-1.5-2.11-2.72-2.58c-.57-.22-1.16-.33-1.75-.33Z"/>
          <g>
            <path class="cls-1" d="m540.85,351.51c-.75,0-1.51-.13-2.24-.42-1.91-.73-11.16-5.42-16.92-9.41-.21-.14-.34-.38-.35-.63-.01-.25.1-.5.29-.66.64-.54,1.13-1.23,1.43-2,.3-.77.39-1.62.27-2.44-.04-.25.05-.5.22-.68.18-.18.43-.27.68-.24,6.94.87,16.96,3.55,18.88,4.28h0c1.57.6,2.82,1.78,3.5,3.32.69,1.54.73,3.25.13,4.82-.96,2.51-3.36,4.05-5.89,4.05Zm-17.43-10.61c5.6,3.73,14.04,8.02,15.77,8.68,2.41.92,5.12-.29,6.05-2.7.45-1.17.41-2.44-.1-3.59-.51-1.14-1.43-2.02-2.6-2.46h0c-1.73-.66-10.88-3.1-17.54-4.06-.01.75-.16,1.5-.43,2.2-.27.7-.66,1.35-1.15,1.92Z"/>
            <path class="cls-1" d="m512.15,338s-.07,0-.1,0c-6.94-.87-16.96-3.55-18.88-4.28-1.57-.6-2.82-1.78-3.5-3.32-.69-1.54-.73-3.25-.13-4.82,1.24-3.25,4.89-4.88,8.14-3.64,1.91.73,11.16,5.42,16.92,9.41.21.14.34.38.35.63.01.25-.1.5-.29.66-.64.53-1.13,1.22-1.43,2-.3.77-.39,1.62-.27,2.44.04.25-.05.5-.22.68-.15.16-.36.24-.58.24Zm-16.72-14.86c-1.89,0-3.67,1.15-4.38,3.01-.45,1.17-.41,2.44.1,3.58.51,1.14,1.44,2.02,2.6,2.46,1.73.66,10.88,3.1,17.53,4.06.01-.75.16-1.49.43-2.2.27-.71.66-1.36,1.15-1.93-5.6-3.73-14.04-8.02-15.77-8.68h0c-.55-.21-1.11-.31-1.67-.31Z"/>
          </g>
          <path class="cls-1" d="m484.95,375.61c-.1,0-.2-.02-.29-.05l-19.24-7.36c-.42-.16-.63-.63-.47-1.05l6.79-17.76c.08-.2.23-.36.43-.45.2-.09.42-.09.62-.02l19.98,7.64c.27.1.46.33.51.61.05.28-.05.56-.26.75-1.23,1.08-2.14,2.39-2.73,3.92l-3.91,10.21h0c-.34.89-.55,1.84-.62,2.81-.02.25-.16.49-.37.62-.13.08-.28.13-.43.13Zm-18.19-8.64l17.51,6.7c.13-.75.33-1.49.6-2.2l3.91-10.21c.51-1.34,1.28-2.58,2.24-3.64l-18.04-6.9-6.21,16.25Zm18.87,4.79h0,0Z"/>
          <path class="cls-1" d="m542.23,411.62c-.1,0-.2-.02-.29-.05l-14.55-5.57c-.21-.08-.37-.24-.46-.44-.09-.2-.09-.43,0-.63,2.2-5.2,2.78-8.46,1.89-10.56-.82-1.92-2.98-3.06-6.2-4.29l-5.5-2.1c-.24-.09-.42-.29-.49-.54s-.02-.51.14-.71c.59-.77,1.07-1.62,1.41-2.51l3.9-10.21c.48-1.26.7-2.58.65-3.93,0-.22.07-.43.22-.59.15-.16.35-.25.57-.25,1.5-.03,2.97.22,4.38.76l11.46,4.38c2.8,1.07,6.63,2.54,9.09,5.53,2.92,3.55,3.21,8.47.85,14.63l-6.33,16.56c-.08.2-.23.36-.43.45-.1.05-.22.07-.33.07Zm-13.48-6.83l13.01,4.98,6.04-15.81c2.16-5.65,1.97-9.91-.59-13.02-2.19-2.66-5.64-3.98-8.42-5.04h0l-11.46-4.38c-.96-.37-1.95-.58-2.97-.64-.05,1.27-.3,2.51-.76,3.71l-3.9,10.21c-.27.71-.61,1.39-1.02,2.04l4.53,1.73c3.62,1.38,6.07,2.73,7.11,5.17,1.05,2.46.58,5.79-1.57,11.05Z"/>
          <g>
            <path class="cls-1" d="m494.73,381.81c-.09,0-.19-.02-.28-.05l-1.34-.5c-.42-.16-.63-.62-.48-1.04.16-.42.62-.63,1.04-.48l1.34.5c.42.16.63.62.48,1.04-.12.33-.43.53-.76.53Z"/>
            <path class="cls-1" d="m504.81,385.56c-.09,0-.19-.02-.28-.05l-6.86-2.55c-.42-.16-.63-.62-.48-1.04.16-.42.62-.63,1.04-.48l6.86,2.55c.42.16.63.62.48,1.04-.12.33-.43.53-.76.53Z"/>
          </g>
        </g>
        <g>
          <path class="cls-1" d="m96.49,220.24h-15.73c-.45,0-.81-.36-.81-.81v-13.74c0-.45.36-.81.81-.81h15.73c.45,0,.81.36.81.81v13.74c0,.45-.36.81-.81.81Zm-14.92-1.62h14.11v-12.12h-14.11v12.12Z"/>
          <path class="cls-1" d="m112.22,220.24h-15.73c-.45,0-.81-.36-.81-.81v-13.74c0-.45.36-.81.81-.81h15.73c.45,0,.81.36.81.81v13.74c0,.45-.36.81-.81.81Zm-14.92-1.62h14.11v-12.12h-14.11v12.12Z"/>
          <path class="cls-1" d="m112.22,233.98h-31.45c-.45,0-.81-.36-.81-.81v-27.48c0-.45.36-.81.81-.81h31.45c.45,0,.81.36.81.81v27.48c0,.45-.36.81-.81.81Zm-30.64-1.62h29.83v-25.86h-29.83v25.86Z"/>
          <path class="cls-1" d="m112.22,330.99h-31.45c-.45,0-.81-.36-.81-.81v-97.01c0-.45.36-.81.81-.81h31.45c.45,0,.81.36.81.81v97.01c0,.45-.36.81-.81.81Zm-30.64-1.62h29.83v-95.39h-29.83v95.39Zm25.38-5.08h-20.93c-.45,0-.81-.36-.81-.81v-.08c0-.16.05-.31.13-.45l10.47-15.8c.15-.23.4-.36.68-.36s.53.14.68.36l10.47,15.8c.09.13.13.29.13.45v.08c0,.45-.36.81-.81.81Zm-19.48-1.62h18.02l-9.01-13.6-9.01,13.6Zm19.48-6.94c-.27,0-.52-.13-.68-.36l-7.66-11.56c-.18-.27-.18-.62,0-.89l7.66-11.56c.2-.3.57-.43.91-.33.34.1.58.42.58.78v23.12c0,.36-.23.67-.58.78-.08.02-.16.03-.23.03Zm-6.69-12.37l5.88,8.87v-17.74l-5.88,8.87Zm-14.25,12.37c-.08,0-.16-.01-.23-.03-.34-.1-.58-.42-.58-.78v-23.12c0-.36.23-.67.58-.78.34-.1.71.03.91.33l7.66,11.56c.18.27.18.62,0,.89l-7.66,11.56c-.15.23-.41.36-.68.36Zm.81-21.24v17.74l5.87-8.87-5.87-8.87Zm9.66,5.43c-.27,0-.53-.14-.68-.36l-10.47-15.8c-.09-.13-.13-.29-.13-.45v-.08c0-.16.05-.31.13-.45l10.47-15.8c.15-.23.4-.36.68-.36s.53.14.68.36l10.47,15.8c.09.13.13.29.13.45v.07c0,.16-.05.31-.13.45l-10.47,15.8c-.15.23-.4.36-.68.36Zm-9.52-16.65l9.52,14.37,9.52-14.37-9.52-14.37-9.52,14.37Zm19.99.04h0,0Zm-20.93-7.75c-.08,0-.16-.01-.23-.03-.34-.1-.58-.42-.58-.78v-23.12c0-.36.23-.67.58-.78.34-.1.71.03.91.33l7.66,11.56c.18.27.18.62,0,.89l-7.66,11.57c-.15.23-.41.36-.68.36Zm.81-21.24v17.74l5.87-8.87-5.87-8.87Zm20.12,21.24c-.27,0-.52-.13-.68-.36l-7.66-11.57c-.18-.27-.18-.62,0-.89l7.66-11.56c.2-.3.57-.43.91-.33.34.1.58.42.58.78v23.12c0,.36-.23.67-.58.78-.08.02-.16.03-.23.03Zm-6.69-12.38l5.88,8.87v-17.74l-5.88,8.87Zm-3.78-3.43c-.27,0-.53-.14-.68-.36l-10.47-15.8c-.09-.13-.13-.29-.13-.45v-4.02c0-.45.36-.81.81-.81h20.93c.45,0,.81.36.81.81v4.02c0,.16-.05.31-.13.45l-10.47,15.8c-.15.23-.4.36-.68.36Zm-9.66-16.86l9.66,14.58,9.66-14.58v-2.97h-19.31v2.97Z"/>
          <path class="cls-1" d="m101.29,206.66h-9.6c-.45,0-.81-.36-.81-.81v-24.23c0-3.03,2.47-5.5,5.5-5.5h.22c3.03,0,5.5,2.47,5.5,5.5v24.23c0,.45-.36.81-.81.81Zm-8.79-1.62h7.98v-23.42c0-2.14-1.74-3.88-3.88-3.88h-.22c-2.14,0-3.88,1.74-3.88,3.88v23.42Z"/>
          <path class="cls-1" d="m158.87,224.55c-.45,0-.81-.36-.81-.81v-47.82c0-.45.36-.81.81-.81s.81.36.81.81v47.82c0,.45-.36.81-.81.81Z"/>
          <g>
            <path class="cls-1" d="m101.29,194.81c-.17,0-.34-.05-.48-.16-.21-.15-.33-.4-.33-.65v-5.21c0-.35.23-.67.57-.77l56.09-17.62c.43-.13.88.1,1.02.53l1.49,4.74c.06.21.04.43-.05.62-.1.19-.27.33-.48.4l-57.58,18.09c-.08.02-.16.04-.24.04Zm.81-5.42v3.51l55.76-17.52-1-3.19-54.75,17.2Z"/>
            <path class="cls-1" d="m45.2,212.43c-.34,0-.66-.22-.77-.57l-1.49-4.74c-.06-.21-.04-.43.05-.62.1-.19.27-.33.48-.4l47.98-15.07c.25-.08.51-.03.72.12.21.15.33.4.33.65v5.21c0,.35-.23.67-.57.77l-46.49,14.6c-.08.03-.16.04-.24.04Zm-.47-5.02l1,3.19,45.15-14.18v-3.51l-46.15,14.5Z"/>
          </g>
          <path class="cls-1" d="m143.21,225.5c-.17,0-.34-.06-.49-.16-.17-.13-.29-.32-.32-.53l-.87-6.06c-.06-.44.24-.85.69-.92l30.97-4.45c.21-.03.43.02.6.15.17.13.29.32.32.53l.87,6.07c.06.44-.24.85-.69.92l-30.97,4.45s-.08,0-.12,0Zm.05-6.19l.64,4.46,29.37-4.22-.64-4.46-29.37,4.22Z"/>
          <g>
            <path class="cls-1" d="m87.21,228.96h-2.32c-.45,0-.81-.36-.81-.81s.36-.81.81-.81h2.32c.45,0,.81.36.81.81s-.36.81-.81.81Z"/>
            <path class="cls-1" d="m104.68,228.97h-11.89c-.45,0-.81-.37-.81-.82s.36-.81.81-.81h11.89c.45,0,.81.37.81.82s-.36.81-.81.81Z"/>
          </g>
        </g>
        <g>
          <g>
            <path class="cls-1" d="m500.53,305.02c-.16,0-.33-.05-.47-.15-1.23-.87-1.97-2.29-1.97-3.8v-56.18c0-2.56,2.09-4.65,4.65-4.65h6.28c.45,0,.81.36.81.81v58.49c0,.45-.36.81-.81.81h-4.65c-1.67,0-3.03,1.36-3.03,3.03v.83c0,.3-.17.58-.44.72-.12.06-.24.09-.37.09Zm2.22-63.16c-1.67,0-3.03,1.36-3.03,3.03v56.18c0,.36.06.71.18,1.03.56-1.95,2.35-3.38,4.47-3.38h3.84v-56.87h-5.47Z"/>
            <path class="cls-1" d="m559.12,310.85h-6.28c-.45,0-.81-.36-.81-.81v-5.11c0-.45.36-.81.81-.81h4.7c2.57,0,4.65,2.09,4.65,4.65v.48c0,.07-.01.15-.03.22-.12.43-.67,1.18-2.97,1.37-.02,0-.04,0-.07,0Zm2.26-1.6h0,0Zm-7.73-.02h5.44c.87-.07,1.29-.23,1.48-.32v-.14c0-1.67-1.36-3.03-3.03-3.03h-3.89v3.49Z"/>
            <path class="cls-1" d="m561.38,310.06c-.13,0-.25-.03-.37-.09-.27-.14-.44-.42-.44-.72v-.48c0-1.67-1.36-3.03-3.03-3.03h-4.7s-.1,0-.14-.01h-49.94c-1.16.02-2.18-.41-2.68-.85,0,0,0,0,0,0h0c-.16-.14-.27-.28-.31-.4-.04-.13-.05-.27-.03-.39v-.69c0-2.56,2.09-4.65,4.65-4.65h3.84v-51.9c0-.45.36-.81.81-.81h50.09c2.57,0,4.65,2.09,4.65,4.65v55.48c0,1.47-.72,2.88-1.91,3.76-.14.1-.31.16-.48.16Zm-8.4-5.94h4.56c2.04,0,3.77,1.32,4.4,3.15.14-.35.21-.73.21-1.12v-55.48c0-1.67-1.36-3.03-3.03-3.03h-49.28v51.9c0,.45-.36.81-.81.81h-4.65c-1.67,0-3.03,1.36-3.03,3.03v.41c.27.14.75.33,1.39.32h50.1s.1,0,.14.01Z"/>
          </g>
          <path class="cls-1" d="m550.35,298.34h-30.22c-.45,0-.81-.36-.81-.81v-41.98c0-.35.23-.66.56-.77.33-.11.7.01.91.3l30.22,41.98c.18.25.2.57.06.84-.14.27-.42.44-.72.44Zm-29.41-1.62h27.83l-27.83-38.66v38.66Z"/>
          <path class="cls-1" d="m553.53,296.49c-.25,0-.5-.12-.66-.34l-12.61-17.52c-.26-.36-.18-.87.18-1.13.36-.26.87-.18,1.13.18l12.61,17.52c.26.36.18.87-.18,1.13-.14.1-.31.15-.47.15Z"/>
          <path class="cls-1" d="m534.67,270.29c-.25,0-.5-.12-.66-.34l-11.36-15.78c-.26-.36-.18-.87.18-1.13.36-.26.87-.18,1.13.18l11.36,15.78c.26.36.18.87-.18,1.13-.14.1-.31.15-.47.15Z"/>
          <path class="cls-1" d="m539.73,279.35c-.26,0-.51-.12-.67-.35-.25-.37-.16-.87.21-1.13l2.37-1.63c.37-.25.87-.16,1.13.21.25.37.16.87-.21,1.13l-2.37,1.63c-.14.1-.3.14-.46.14Z"/>
          <path class="cls-1" d="m533.49,271.11c-.26,0-.51-.12-.67-.35-.25-.37-.16-.87.21-1.13l2.37-1.62c.37-.25.87-.16,1.13.21.25.37.16.87-.21,1.13l-2.37,1.62c-.14.1-.3.14-.46.14Z"/>
          <g>
            <path class="cls-1" d="m505.43,296.32c-.44,0-.81-.36-.81-.8v-1.01c-.01-.45.35-.81.79-.82h0c.44,0,.81.36.81.8v1.01c.01.45-.35.81-.79.82h0Z"/>
            <path class="cls-1" d="m505.4,292.89c-.44,0-.81-.36-.81-.8l-.05-5.16c0-.45.36-.81.8-.82h0c.44,0,.81.36.81.8l.05,5.16c0,.45-.36.81-.8.82h0Z"/>
          </g>
        </g>
        <g>
          <path class="cls-1" d="m191.6,134.53c-1.61,0-2.94-1.28-3-2.89l-.17-4.6c-.93-.3-1.85-.64-2.76-1.03l-3.13,3.37c-1.13,1.21-3.03,1.28-4.24.16l-11.05-10.28c-1.21-1.13-1.28-3.03-.15-4.24l3.14-3.37c-.45-.88-.86-1.77-1.23-2.68l-4.6.16c-1.66.06-3.05-1.24-3.11-2.89l-.54-15.09c-.06-1.65,1.24-3.05,2.89-3.11l4.6-.16c.3-.93.64-1.86,1.03-2.76l-3.37-3.13c-1.21-1.13-1.28-3.03-.15-4.24l10.28-11.05s0,0,0,0c1.13-1.21,3.03-1.28,4.24-.15l3.37,3.13c.88-.46,1.78-.87,2.68-1.23l-.17-4.6c-.06-1.65,1.24-3.04,2.89-3.1l15.09-.54c1.65-.06,3.05,1.24,3.11,2.89l.17,4.6c.92.3,1.85.64,2.76,1.03l3.14-3.37c.55-.59,1.29-.93,2.09-.96.8-.03,1.56.26,2.15.8l11.05,10.28c1.21,1.13,1.28,3.03.15,4.24l-3.14,3.37c.46.89.87,1.78,1.22,2.68l4.6-.16c.8-.03,1.56.25,2.15.8.59.55.93,1.29.96,2.09l.54,15.08c.06,1.65-1.24,3.05-2.89,3.11l-4.6.16c-.29.92-.64,1.85-1.03,2.76l3.37,3.14c1.21,1.13,1.28,3.03.15,4.24l-10.28,11.05c-1.13,1.21-3.03,1.28-4.24.16l-3.37-3.14c-.88.45-1.78.86-2.68,1.23l.17,4.6c.03.8-.26,1.57-.8,2.15-.55.59-1.29.93-2.09.95l-15.08.54s-.07,0-.11,0Zm-6.12-10.31c.11,0,.23.02.33.07,1.19.54,2.42,1,3.65,1.36.33.1.57.4.58.75l.19,5.17c.03.76.67,1.35,1.43,1.33l15.08-.54c.37-.01.71-.17.96-.44.25-.27.38-.62.37-.99l-.19-5.17c-.01-.35.2-.66.52-.79,1.19-.45,2.38-1,3.54-1.62.31-.17.68-.12.94.12l3.79,3.53c.56.52,1.44.48,1.95-.07l10.28-11.05c.52-.56.49-1.43-.07-1.95l-3.79-3.53c-.25-.24-.33-.61-.19-.92.54-1.21,1-2.44,1.36-3.65.1-.33.4-.57.75-.58l5.17-.18c.76-.03,1.36-.67,1.33-1.43l-.54-15.08c-.01-.37-.17-.71-.44-.96-.27-.25-.62-.38-.99-.37l-5.18.19c-.35.02-.66-.2-.79-.52-.45-1.18-.99-2.37-1.62-3.54-.16-.31-.11-.68.12-.93l3.53-3.79c.52-.56.49-1.43-.07-1.95l-11.05-10.28c-.27-.25-.62-.38-.99-.37-.37.01-.71.17-.96.44l-3.53,3.79c-.24.25-.61.33-.93.19-1.2-.54-2.42-1-3.65-1.36-.33-.1-.57-.4-.58-.75l-.19-5.17c-.03-.76-.68-1.36-1.43-1.33l-15.08.54c-.76.03-1.36.67-1.33,1.43l.19,5.17c.01.35-.2.66-.52.79-1.19.45-2.38,1-3.54,1.62-.31.16-.68.12-.94-.12l-3.79-3.53c-.56-.52-1.43-.49-1.95.07l-10.28,11.05c-.52.56-.49,1.43.07,1.95l3.79,3.53c.25.24.33.61.19.93-.53,1.18-.99,2.41-1.36,3.65-.1.33-.4.57-.75.58l-5.17.18c-.76.03-1.36.67-1.33,1.43l.54,15.09c.03.76.67,1.35,1.43,1.33l5.17-.18c.35-.02.66.2.79.52.46,1.2,1,2.39,1.62,3.54.16.31.12.68-.12.94l-3.53,3.79c-.52.56-.49,1.43.07,1.95l11.05,10.28c.56.52,1.43.48,1.95-.07l3.53-3.79c.16-.17.37-.26.59-.26Zm12.44-6.51c-4.97,0-9.95-1.8-13.87-5.45-8.22-7.65-8.68-20.56-1.03-28.78,7.65-8.22,20.56-8.68,28.78-1.04,8.22,7.65,8.68,20.56,1.03,28.78-4,4.3-9.45,6.48-14.91,6.48Zm.01-39.08c-5.03,0-10.04,2-13.73,5.97,0,0,0,0,0,0-7.04,7.56-6.61,19.44.95,26.49,7.57,7.04,19.45,6.61,26.49-.95,7.04-7.57,6.61-19.45-.95-26.49-3.6-3.35-8.19-5.01-12.76-5.01Zm-14.32,5.41h0,0Z"/>
          <path class="cls-1" d="m138.97,151.26c-.46,0-.91-.14-1.29-.4-.51-.35-.86-.87-.98-1.48l-.58-2.95c-.55-.09-1.11-.2-1.67-.34l-1.68,2.49c-.72,1.06-2.16,1.35-3.23.63l-8.66-5.82c-1.06-.72-1.34-2.16-.63-3.23l1.68-2.49c-.33-.46-.65-.93-.94-1.42l-2.95.58c-.61.12-1.23,0-1.75-.35-.51-.35-.86-.87-.98-1.48l-2-10.24c-.24-1.26.58-2.48,1.83-2.73l2.95-.58c.09-.55.2-1.11.34-1.67l-2.5-1.68c-.51-.34-.86-.87-.98-1.48-.12-.61,0-1.23.35-1.75l5.82-8.66c.35-.51.87-.86,1.48-.98.61-.12,1.23,0,1.75.35l2.49,1.68c.47-.34.94-.65,1.42-.94l-.58-2.95c-.25-1.26.58-2.48,1.83-2.73l10.24-2.01c1.26-.24,2.48.58,2.73,1.83l.58,2.95c.56.09,1.12.2,1.67.34l1.68-2.49c.35-.52.87-.87,1.48-.99.61-.12,1.23,0,1.75.35l8.66,5.82c1.06.72,1.35,2.17.63,3.23l-1.68,2.5c.33.46.65.94.95,1.42l2.95-.57c1.26-.24,2.48.58,2.73,1.83l2,10.24c.12.61,0,1.23-.35,1.74-.35.52-.87.86-1.48.98l-2.95.58c-.09.56-.2,1.12-.34,1.67l2.5,1.68c1.06.72,1.35,2.17.63,3.23l-5.82,8.66c-.71,1.06-2.16,1.35-3.22.64l-2.5-1.68c-.47.34-.94.65-1.42.94l.58,2.95c.25,1.26-.58,2.48-1.83,2.73l-10.24,2c-.15.03-.3.04-.45.04Zm-4.88-6.9c.07,0,.14,0,.21.03.89.24,1.77.42,2.61.53.34.05.62.31.69.65l.69,3.51c.04.18.14.34.3.45.16.11.35.14.53.11l10.24-2c.38-.07.63-.45.56-.83l-.69-3.52c-.07-.34.09-.69.4-.86.75-.42,1.49-.92,2.21-1.47.28-.21.66-.22.94-.03l2.97,2c.32.21.76.13.98-.2l5.82-8.66c.22-.32.13-.76-.19-.98l-2.97-2c-.29-.19-.42-.55-.33-.89.23-.84.41-1.72.53-2.6.05-.34.31-.62.65-.69l3.51-.69c.18-.04.34-.14.45-.3.11-.16.14-.34.11-.53l-2-10.24c-.07-.38-.45-.63-.83-.55l-3.51.68c-.34.07-.68-.09-.86-.39-.44-.77-.94-1.51-1.48-2.22-.21-.28-.22-.66-.03-.94l2-2.97c.22-.32.13-.76-.19-.98l-8.66-5.82c-.16-.11-.35-.14-.53-.11-.18.04-.34.14-.45.3l-2,2.97c-.19.29-.55.42-.88.33-.85-.23-1.73-.41-2.61-.53-.34-.05-.62-.31-.69-.65l-.69-3.51c-.08-.38-.45-.63-.83-.56l-10.24,2.01c-.38.08-.63.45-.56.83l.69,3.51c.07.34-.09.69-.39.86-.75.43-1.49.92-2.21,1.47-.28.21-.65.22-.94.03l-2.97-2c-.16-.11-.35-.15-.53-.11-.18.04-.34.14-.45.3h0s-5.82,8.66-5.82,8.66c-.11.16-.14.34-.11.53.04.18.14.34.3.45l2.97,2c.29.19.42.55.33.88-.24.87-.41,1.75-.53,2.61-.05.35-.31.62-.65.69l-3.51.69c-.38.08-.63.45-.56.83l2,10.24c.04.19.14.35.3.45.16.11.35.14.53.11l3.51-.69c.34-.07.68.09.86.39.45.78.94,1.52,1.47,2.22.21.28.22.66.03.94l-2,2.97c-.22.32-.13.76.19.98l8.66,5.82c.32.22.76.13.98-.19l1.99-2.97c.15-.23.41-.36.67-.36Zm-12.3-37.69h0,0Zm17.77,32.59c-2.82,0-5.57-.83-7.97-2.44-6.55-4.41-8.3-13.33-3.89-19.88t0,0c4.41-6.55,13.33-8.3,19.89-3.89,6.55,4.41,8.3,13.33,3.89,19.88-2.14,3.18-5.38,5.33-9.14,6.07-.93.18-1.86.27-2.78.27Zm-10.52-21.42c-3.91,5.81-2.36,13.72,3.45,17.64,2.82,1.89,6.2,2.58,9.53,1.93,3.33-.65,6.21-2.56,8.1-5.38,3.91-5.81,2.36-13.72-3.45-17.63-5.81-3.91-13.73-2.36-17.64,3.45h0Z"/>
          <g>
            <path class="cls-1" d="m229.51,103.69c-.45,0-.81-.36-.81-.81v-1.58c0-.45.35-.81.8-.81h0c.45,0,.81.36.81.81v1.58c0,.45-.35.81-.8.81h0Z"/>
            <path class="cls-1" d="m229.49,98.32c-.45,0-.81-.36-.81-.81l-.03-8.09c0-.45.36-.81.81-.81h0c.45,0,.81.36.81.81l.03,8.09c0,.45-.36.81-.81.81h0Z"/>
          </g>
        </g>
      </g>
    </g>
  </g>
</svg>